<svg width="240" height="46" viewBox="0 0 240 46" fill="none" xmlns="http://www.w3.org/2000/svg">
<path fill-rule="evenodd" clip-rule="evenodd" d="M38.8542 45.5556H38.856L38.8491 45.5403L38.8123 45.4297L38.4682 44.4058L37.4359 41.3426L33.2061 28.7456L29.7233 18.3475L25.5691 5.99387L25.4264 5.56585L24.8893 3.96291L24.092 1.58786L24.0752 1.5459L24.0584 1.59625L24.0228 1.70161L23.9847 1.58786L23.9679 1.5459H0.0664062V45.5556H9.28783H38.8542ZM22.7185 5.58264H4.10315V18.3475H18.4271L22.5814 5.99387L22.7185 5.58264ZM4.10315 21.1239V41.5188H10.647L10.7061 41.3426L14.9359 28.7456L4.10315 21.1239ZM15.0295 41.5188H33.1126L32.8621 41.3426L24.092 35.1742L24.0752 35.1658L24.0584 35.1742L15.28 41.3426L15.0295 41.5188Z" fill="#C63C3C"/>
<path fill-rule="evenodd" clip-rule="evenodd" d="M222.092 29.3074V0.739746H227.136V29.3074H222.092ZM62.3274 1.91479L61.5553 4.36537L57.5101 17.1973L55.689 22.9713L53.4902 16.056L53.3139 15.5021L50.2088 5.74172L50.15 5.56548L49.3947 3.19044L49.3611 3.08973L48.9919 1.91479H43.1172L43.3522 2.60297L43.7634 3.82826L44.4012 5.74172L46.3483 11.5409L52.3152 29.3075H59.004L67.2285 4.91088L68.2356 1.91479H62.3274ZM87.4877 19.5216C87.4877 16.6011 86.5561 14.1505 84.693 12.1615C82.8299 10.1809 80.4632 9.19059 77.5931 9.19059C74.5634 9.19059 72.0876 10.1725 70.1574 12.1447C68.2271 14.1169 67.262 16.5759 67.262 19.5216C67.262 22.4673 68.2355 24.9599 70.1994 26.9153C72.1548 28.8707 74.748 29.8526 77.9791 29.8526C81.7389 29.8526 84.5839 28.4595 86.5142 25.6648L82.4439 23.315C81.4535 24.6242 79.9933 25.2704 78.063 25.2704C75.0586 25.2704 73.2206 24.0451 72.5408 21.5945H87.2947C87.4289 20.8644 87.4877 20.1762 87.4877 19.5216ZM72.4653 17.6837C72.7506 16.4332 73.3381 15.4597 74.2277 14.7631C75.1089 14.075 76.2335 13.7309 77.5931 13.7309C78.7344 13.7309 79.7667 14.0582 80.6647 14.7044C81.5627 15.359 82.1585 16.3493 82.4439 17.6837H72.4653ZM101.612 9.73672V14.5875H97.1973V22.7281C97.1973 23.4079 97.3652 23.9031 97.7008 24.2136C98.0449 24.5325 98.5401 24.7087 99.1863 24.7423C99.8409 24.7843 100.647 24.7759 101.612 24.7255V29.3078C98.1456 29.6938 95.7035 29.3665 94.2768 28.3259C92.8584 27.2852 92.1451 25.4137 92.1451 22.7281V14.5875H88.7378V9.73672H92.1451V5.78391L97.1973 4.26489V9.73672H101.612ZM126.95 1.91479L121.94 10.2065L119.137 14.8475L115.964 9.6274L111.281 1.91479H105.726V29.3075H111.122V11.608L118.818 24.2721L119.447 24.2469L121.94 20.1431L127.168 11.5409V29.3075H132.531V1.91479H126.95ZM150.287 20.3018V9.73582H155.339V29.3069H150.287V27.1081C149.062 28.9376 147.123 29.8524 144.463 29.8524C142.323 29.8524 140.552 29.1306 139.159 27.6955C137.766 26.2604 137.069 24.2798 137.069 21.7537V9.73582H142.113V21.1243C142.113 22.4335 142.465 23.4238 143.17 24.1204C143.875 24.8086 144.815 25.1526 145.99 25.1526C147.291 25.1526 148.332 24.7498 149.12 23.9441C149.901 23.1301 150.287 21.9216 150.287 20.3018ZM171.143 14.5875V9.73672H166.729V4.26489L161.677 5.78391V9.73672H158.278V14.5875H161.677V22.7281C161.677 25.4137 162.39 27.2852 163.808 28.3259C165.235 29.3665 167.677 29.6938 171.143 29.3078V24.7255C170.178 24.7759 169.372 24.7843 168.718 24.7423C168.072 24.7087 167.576 24.5325 167.232 24.2136C166.897 23.9031 166.729 23.4079 166.729 22.7281V14.5875H171.143ZM187.935 20.3018V9.73582H192.979V29.3069H187.935V27.1081C186.702 28.9376 184.763 29.8524 182.103 29.8524C179.963 29.8524 178.192 29.1306 176.799 27.6955C175.406 26.2604 174.709 24.2798 174.709 21.7537V9.73582H179.753V21.1243C179.753 22.4335 180.105 23.4238 180.81 24.1204C181.515 24.8086 182.455 25.1526 183.63 25.1526C184.931 25.1526 185.972 24.7498 186.76 23.9441C187.541 23.1301 187.935 21.9216 187.935 20.3018ZM212.468 9.73609V12.044C210.957 10.1473 208.825 9.19059 206.089 9.19059C203.354 9.19059 201.239 10.1893 199.376 12.1867C197.512 14.1841 196.581 16.6262 196.581 19.5216C196.581 22.417 197.512 24.8592 199.376 26.8566C201.239 28.854 203.479 29.8526 206.089 29.8526C208.7 29.8526 210.957 28.8959 212.468 26.9908V29.3071H217.512V9.73609H212.468ZM210.924 23.4912C209.891 24.5235 208.59 25.0354 207.029 25.0354C205.468 25.0354 204.168 24.5235 203.152 23.4912C202.137 22.459 201.625 21.1413 201.625 19.5216C201.625 17.9019 202.137 16.5843 203.152 15.552C204.168 14.5198 205.46 14.0078 207.029 14.0078C208.599 14.0078 209.891 14.5198 210.924 15.552C211.947 16.5843 212.468 17.9019 212.468 19.5216C212.468 21.1413 211.947 22.459 210.924 23.4912ZM57.1345 43.4809V36.3138H54.516V45.5539H61.5405V43.4809H57.1345ZM64.5544 45.5539V36.3138H67.1644V45.5539H64.5544ZM78.2479 38.328V36.3138H71.0053V45.5539H73.6153V42.3815H77.694V40.359H73.6153V38.328H78.2479ZM84.0468 41.8444V43.5313H88.8809V45.5539H81.462V36.3138H88.7046V38.328H84.0468V39.889H88.1507V41.8444H84.0468ZM98.1381 36.3138V45.5539H100.748V36.3138H98.1381ZM110.818 41.2318V36.3138H113.377V45.5539H111.229L109.072 42.9522L107.15 40.6275V45.5539H104.591V36.3138H106.739L110.818 41.2318ZM124.046 41.2332C123.702 40.8555 123.307 40.5786 122.845 40.4107C122.384 40.2429 121.796 40.075 121.091 39.9324C120.47 39.7981 120.017 39.6722 119.732 39.5463C119.455 39.4204 119.312 39.2358 119.312 38.9924C119.312 38.749 119.43 38.5476 119.665 38.3882C119.908 38.2371 120.286 38.1616 120.806 38.1616C121.629 38.1616 122.485 38.3965 123.366 38.8749L124.171 36.9363C123.718 36.6677 123.198 36.4663 122.61 36.332C122.023 36.1977 121.419 36.1306 120.815 36.1306C119.925 36.1306 119.178 36.2565 118.565 36.525C117.953 36.7852 117.491 37.1461 117.189 37.5993C116.879 38.0525 116.719 38.5644 116.719 39.1267C116.719 39.7645 116.887 40.2764 117.223 40.6541C117.558 41.0318 117.961 41.3087 118.423 41.4766C118.893 41.6528 119.472 41.8122 120.168 41.9633C120.806 42.106 121.259 42.2403 121.545 42.3661C121.838 42.492 121.981 42.6851 121.981 42.9536C121.981 43.4572 121.478 43.7089 120.47 43.7089C119.942 43.7089 119.405 43.625 118.859 43.4572C118.423 43.3229 118.037 43.155 117.684 42.9536C117.592 42.9033 117.508 42.8529 117.424 42.7942L117.357 42.9536L116.568 44.7244C117.004 45.0265 117.575 45.2783 118.28 45.4629C118.985 45.6476 119.707 45.7399 120.462 45.7399C121.343 45.7399 122.09 45.6056 122.703 45.3371C123.315 45.0685 123.785 44.7076 124.088 44.2628C124.356 43.8684 124.507 43.432 124.541 42.9536C124.549 42.8865 124.549 42.8195 124.549 42.7524V42.7522C124.549 42.1144 124.381 41.6024 124.046 41.2332ZM133.765 41.3493V36.3138H136.341V41.4332C136.341 41.9955 136.283 42.499 136.148 42.9522C135.972 43.6152 135.653 44.1691 135.2 44.6139C134.436 45.3608 133.379 45.7385 132.003 45.7385C130.626 45.7385 129.56 45.3608 128.797 44.6139C128.343 44.1691 128.025 43.6152 127.848 42.9522C127.714 42.499 127.655 41.9955 127.655 41.4332V36.3138H130.274V41.3493C130.274 42.0458 130.4 42.5829 130.668 42.9522C130.953 43.3634 131.415 43.5732 132.028 43.5732C132.64 43.5732 133.085 43.3634 133.37 42.9522C133.639 42.5829 133.765 42.0458 133.765 41.3493ZM146.612 42.6501C147.191 42.3647 147.636 41.9787 147.955 41.4752C148.265 40.98 148.425 40.4009 148.425 39.7295C148.425 39.0581 148.257 38.4287 147.921 37.9168C147.586 37.3965 147.107 37.002 146.495 36.7251C145.874 36.4481 145.152 36.3138 144.313 36.3138H140.091V45.5539H142.701V43.0949H144.128L145.806 45.5539H148.609L146.612 42.6501ZM145.37 40.7282C145.101 40.9632 144.69 41.0723 144.153 41.0723H142.701V38.37H144.153C144.69 38.37 145.101 38.4875 145.37 38.7224C145.647 38.9658 145.781 39.3015 145.781 39.7295C145.781 40.1575 145.647 40.4932 145.37 40.7282ZM154.812 36.3138H157.389L161.476 45.5539H158.756L158.035 43.7579H154.124L153.402 45.5539H150.733L154.812 36.3138ZM156.079 38.8735L154.888 41.8276H157.263L156.079 38.8735ZM170.431 36.3138V41.2318L166.353 36.3138H164.196V45.5539H166.764V40.6275L170.843 45.5539H172.991V36.3138H170.431ZM180.214 43.239C180.609 43.4655 181.054 43.5746 181.557 43.5746C182.413 43.5746 183.135 43.2138 183.739 42.492L185.401 43.9943C184.948 44.5566 184.385 44.993 183.706 45.2867C183.034 45.5888 182.271 45.7399 181.423 45.7399C180.458 45.7399 179.585 45.5301 178.821 45.1272C178.049 44.716 177.445 44.1453 177 43.4152C176.564 42.6851 176.345 41.8542 176.345 40.931C176.345 40.0079 176.564 39.177 177 38.4469C177.445 37.7168 178.049 37.1461 178.821 36.7432C179.585 36.332 180.458 36.1306 181.423 36.1306C182.271 36.1306 183.034 36.2733 183.706 36.5754C184.385 36.8775 184.948 37.3055 185.401 37.8678L183.739 39.3785C183.135 38.6567 182.413 38.2958 181.557 38.2958C181.054 38.2958 180.609 38.4049 180.214 38.6231C179.828 38.8413 179.518 39.1519 179.308 39.5547C179.09 39.9575 178.981 40.4107 178.981 40.931C178.981 41.4514 179.09 41.913 179.308 42.3158C179.518 42.7102 179.828 43.0208 180.214 43.239ZM191.126 43.5313V41.8444H195.238V39.889H191.126V38.328H195.792V36.3138H188.541V45.5539H195.96V43.5313H191.126ZM234.17 1.66291V0.739746H230.292V1.66291H231.744V5.75H232.743V1.66291H234.17ZM239.935 0.739746H238.97L237.367 3.28264L235.764 0.739746H234.782V5.75839H235.781V2.42662L237.308 4.85202H237.409L238.936 2.41822V5.75H239.935V0.739746Z" fill="white"/>
</svg>
