<?xml version="1.0" encoding="UTF-8" standalone="no"?>
<!-- Generator: Adobe Illustrator 19.2.1, SVG Export Plug-In . SVG Version: 6.00 Build 0)  -->

<svg
   xmlns:dc="http://purl.org/dc/elements/1.1/"
   xmlns:cc="http://creativecommons.org/ns#"
   xmlns:rdf="http://www.w3.org/1999/02/22-rdf-syntax-ns#"
   xmlns:svg="http://www.w3.org/2000/svg"
   xmlns="http://www.w3.org/2000/svg"
   xmlns:sodipodi="http://sodipodi.sourceforge.net/DTD/sodipodi-0.dtd"
   xmlns:inkscape="http://www.inkscape.org/namespaces/inkscape"
   version="1.1"
   id="layer"
   x="0px"
   y="0px"
   viewBox="0 0 603 110"
   xml:space="preserve"
   sodipodi:docname="mutual-of-omaha-logo-vector-2022.svg"
   width="603"
   height="110"
   inkscape:version="0.92.4 (5da689c313, 2019-01-14)"><metadata
   id="metadata1608"><rdf:RDF><cc:Work
       rdf:about=""><dc:format>image/svg+xml</dc:format><dc:type
         rdf:resource="http://purl.org/dc/dcmitype/StillImage" /><dc:title></dc:title></cc:Work></rdf:RDF></metadata><defs
   id="defs1606" /><sodipodi:namedview
   pagecolor="#ffffff"
   bordercolor="#666666"
   borderopacity="1"
   objecttolerance="10"
   gridtolerance="10"
   guidetolerance="10"
   inkscape:pageopacity="0"
   inkscape:pageshadow="2"
   inkscape:window-width="2516"
   inkscape:window-height="1255"
   id="namedview1604"
   showgrid="false"
   inkscape:zoom="2.047573"
   inkscape:cx="236.14326"
   inkscape:cy="201.56295"
   inkscape:window-x="1293"
   inkscape:window-y="43"
   inkscape:window-maximized="0"
   inkscape:current-layer="layer" />
<style
   type="text/css"
   id="style1599">
	.st0{fill:#003A70;}
</style>
<path
   class="st0"
   d="m 86.961017,11.78051 c -5.6,-0.9 -23.5,-1 -32.1,11.8 -0.1,0.1 -0.2,0 -0.2,-0.1 0.9,-13.2 20.1,-15.6 25.6,-15.9 2.3,1.2 4.6,2.6 6.7,4.2 m -39,26.8 c -0.9,0.1 -1.4,0.3 -1.7,1.1 -0.6,1.3 -0.1,2.3 -0.9,2.9 -0.4,0.3 -0.3,1.1 0.2,1.1 3.4,-0.1 5.7,-0.1 9.7,-2.7 0.4,-0.3 0.4,-0.9 -0.1,-1.1 -2.2,-0.6 -5.3,-1.4 -7.2,-1.3 m 22.6,-7.9 c 0.1,0 0.2,0 0.3,0 0.7,0.1 1.3,0.3 0.9,-0.3 v 0 c -2.2,-3 -6.1,0.3 -7.4,1.6 1.2,0.6 2.2,1.3 3.2,2.2 0.4,-2.1 1.9,-3.7 3,-3.5 m 28.8,39.6 c 0,7.5 -1.2,15 -4.9,20.9 -2.7,2.9 -5.7,5.5 -9,7.8 0.4,-1.8 0.9,-3.9 1.4,-6 0,0 0,0 0,0 2.5,-11.3 4.8,-26.6 1.1,-33.7 -0.1,-0.1 -0.2,0 -0.2,0.1 0.8,19.4 -13.1,29.2 -18.1,42.8 0,0 -0.9,3 -1.2,4.5 -3,0.7 -6,1.2 -9.2,1.4 -0.1,-0.9 -0.1,-2 -0.1,-3 0,-6.5 2.6,-12.2 6.3,-16.9 4.4,-5.5 8.3,-11.3 10.7,-18.1 0.1,-0.4 0.3,-0.8 0.4,-1.1 1.6,-5 2.2,-10.3 1.9,-15.5 0,-0.5 -0.1,-1.4 -0.1,-1.9 -0.1,-0.7 -0.2,-1.9 -0.3,-1.9 -0.2,0 -0.3,1.1 -0.4,1.6 -0.1,0.5 -0.3,1 -0.4,1.6 -0.3,1 -0.6,2 -1,3 -1.3,3.5 -3.1,7 -5.6,9.9 -3.3,3.8 -6.1,6.2 -8.7,9 -4.5,3.9 -7.7,9.3 -8.9,15.5 -0.8,-2 -1.1,-3.9 -1.1,-6.3 0,-4.9 1.3,-9.6 3.7,-13.5 -9.6,4.6 -16.3,14.4 -16.3,25.8 0,1.8 0.2,3.6 0.5,5.4 l 0.9,4.6 c -22.2,-6.4 -38.4000001,-26.9 -38.4000001,-51.2 0,-29.4 23.9000001,-53.3 53.3000001,-53.3 6.8,0 13.3,1.3 19.3,3.6 -5.4,0.3 -25.5,2.5 -28.2,19 0,0.2 -0.3,0.1 -0.3,0 -2.8,-6.9 1.6,-12.3 4.1,-14.1 0.1,-0.1 -12.8,6.1 -7.7,20.8 0,0.1 0,0.1 -0.1,0.2 -0.5,0.3 -0.8,0.3 -1.3,0.4 -6.9,1.9 -8.1,11 -9,11.7 -2.4,1.8 -6.5,3.7 -8.9,5.4 -1,0.7 -2.5,3 -2.9,4.5 -0.2,0.5 0.4,1.3 0.9,1.2 1,-0.1 1.2,-1.1 2.8,-1.1 1.8,0 2.4,1.2 4.1,1.3 1.2,0.1 2.1,-0.6 3.2,-0.6 0.9,0 1.7,0.1 2.3,0.5 0.4,0.3 0.9,1.3 1.2,2.2 0.1,0.3 -0.1,0.5 -0.4,0.5 -1.3,-0.4 -3.2,-0.7 -4.4,-0.4 -2.7,0.7 -4.1,1.3 -4.2,6.3 0,0.7 1.1,2.7 4,4.7 3.8,2.2 7.4,3.2 11.1,3.2 1.4,0 2.8,0 4.1,-0.2 4.6,-0.9 4.2,-7.5 4.2,-7.5 1.6,0.5 5.8,0.7 5.8,0.7 12.2,0.2 13.8,-15.2 12.2,-20.2 2.2,2 3.5,4.8 3.5,8 0,1.6 -0.3,3 -0.9,4.3 -0.3,0.7 -0.5,1.2 -0.6,1.4 2.5,-2.8 4.2,-6.8 4.2,-10.9 0,-1.9 -0.3,-3.8 -0.9,-5.5 -0.1,-0.2 -0.2,-0.5 -0.4,-0.8 l 0.1,-0.1 c 2.5,-1.2 4.3,-3.8 4.3,-6.7 0,-3.1 -1.9,-5.7 -4.5,-6.9 -4.1,-1.4 -6.9,0.4 -8.8,1.8 -0.8,0.6 -1.5,1.3 -2.2,2.1 -0.1,0.1 -0.3,0.2 -0.5,0.2 -0.2,0 -0.4,-0.1 -0.6,-0.1 -0.2,0 -0.3,-0.3 -0.3,-0.5 0,0 2.9,-18.6 34.9,-11.2 2.5,2.7 4.7,5.7 6.600003,8.9 -0.5,-0.2 -3.800003,-1.4 -6.300003,-2.2 -3.7,-1.1 -7.7,-1.8 -11.8,-1.8 -3,0 -5.9,0.3 -8.8,1 2.6,1.3 3.7,3.5 4.1,4.3 11.4,0.8 21.800003,6.4 28.900003,14.4 0.7,3.2 1.1,6.5 1.2,9.9 -8,-6.4 -17.500003,-11.9 -27.300003,-15.6 v 0 c 10.7,6.7 17.9,18.7 17.9,32.4 m -77.1,-3.7 c 0.5,-1 1,-3.3 1,-4.4 0,-2.2 -0.4,-5.6 -2,-5.7 -0.4,0 -1,0.7 -1.1,0.8 -0.7,1.2 -0.9,2.6 -0.8,3.9 0.1,1 0.3,1.9 0.5,2.9 0.2,0.6 0.4,1.2 0.6,1.7 0.2,0.6 0.6,2 0.9,2 0.3,0 0.7,-0.8 0.9,-1.2 m 19.8,7.6 c 0.1,-0.1 0,-0.2 -0.1,-0.2 -3.9,0.6 -8,-0.8 -10.4,-1.9 -2.1,-1 -5.5,-3.5 -6.5,-5.8 -0.4,0.7 -1,1.9 -1.1,3.7 -0.1,0.9 0.2,2.9 0.2,2.9 0.2,1.1 0.9,2.4 1.5,3.4 0.2,0.5 0.5,0.9 0.9,1.3 0.2,0.3 0.2,0 0.2,-0.1 -0.1,-0.6 0.1,-2 0.4,-2.6 1,1.9 4.2,6.4 7,8.2 0,0 0,0 0,0 0,0 0,0 0,0 0.1,0.1 0.2,-3 7.9,-8.9 m 282.200003,-10.5 v -18.6 h -11.6 v 18.6 19 h 23.2 v -4.5 h -11.6 z m -111.2,-13.8 h 8.1 v 13.5 19.2 h 11.5 v -19 -13.8 h 8.3 v -4.8 h -28 v 4.9 z m -14.8,13.8 v 15.9 c -3.3,0.3 -6,-0.5 -6,-3.5 v -12.4 -18.6 h -10.8 v 18.6 7.6 2.8 c 0,4.3 2,6.4 4.5,7.6 1.3,0.6 2.8,1 4,1 h 19.4 v -1 -18 -18.6 h -11.1 z m 102.6,-18.6 c 3.3,0 5.8,2.5 5.8,5 v 1.8 13.6 16.1 1 h -21.2 c -1.3,0 -2.5,-0.2 -3.5,-1 -2,-1.3 -3.3,-3.5 -3.3,-7.3 v -3 -5.8 -0.8 c 0,-3.6 2.5,-6.5 5.5,-6.5 h 11.3 v -4.6 c 0,0 0.3,-2 -0.5,-3.5 -0.5,-0.8 -1.3,-1.5 -2.3,-1.5 h -12.6 v -3.5 h 20.8 m -5.3,20.4 v -3.6 c -2.8,0 -5.3,0.9 -5.4,3.9 -0.2,4.9 -0.1,10.3 -0.1,10.3 0.2,3.5 2.3,3.8 5.5,3.5 z m -34,-1.8 v 15.9 c -3.3,0.3 -6,-0.5 -6,-3.5 v -12.4 -18.6 h -10.8 v 18.6 7.6 2.8 c 0,4.3 2,6.4 4.5,7.6 1.3,0.6 2.8,1 4,1 h 19.4 v -1 -18 -18.6 h -11.1 z m 220.8,-18.6 h -38.4 v 7.3 11.3 19 h 11.6 v -19 -11.3 -3.8 c 3.3,0 5.5,0.8 5.5,3.8 v 11.3 19 h 11.8 v -1 -18 -11.3 -3.8 c 3.3,0 5.5,0.8 5.5,3.8 v 11.3 19 h 11.8 v -19 -11.6 c 0.1,-3 -3.8,-7 -7.8,-7 m -45,0 c 0.2,1.5 0.5,3.3 0.5,5 0.2,3.3 0.2,7 0,10.6 -0.1,1 -0.3,2 -0.5,2.9 v 0 c -0.5,2.7 -1.1,5.4 -2.1,7.6 -0.5,1 -1,2 -1.8,3 -2.6,3.1 -6.1,5.5 -10.1,7.3 -3.3,1.5 -7,2.3 -11.3,2.3 -5,0.3 -9.3,-0.5 -13.4,-2.3 -4.3,-1.8 -7.8,-5 -10.8,-10.3 -0.3,-0.5 -0.4,-1 -0.6,-1.5 -0.7,-1.7 -1.3,-3.8 -1.7,-6.1 v 0 c -0.2,-1 -0.3,-1.9 -0.5,-3 -0.2,-3.3 -0.2,-7.1 0.3,-10.6 0.2,-2.3 0.5,-4.5 1,-6.6 0,-0.1 0.1,-0.3 0.1,-0.4 v 0 c 0.3,-1.1 0.7,-2.3 1.2,-3.4 3.8,-8.6 11.8,-14.6 24.2,-14.4 11.3,0 19.7,4.5 23.7,14.4 0.5,1 0.9,2.2 1.2,3.4 v 0 c 0.2,0.8 0.4,1.5 0.6,2.1 m -13.4,18.6 c 0,-1 0,-2 0,-3 v -6 -4.3 c 0,-2.6 0,-5 -0.1,-7.2 v 0 c -0.1,-1.2 -0.2,-2.3 -0.4,-3.4 -1,-6.3 -3.8,-10.8 -11.6,-10.8 -8.8,0 -11.6,4 -12.3,10.8 -0.2,1.1 -0.3,2.2 -0.4,3.4 -0.1,2.2 -0.1,4.5 -0.1,6.9 v 4.5 6 c 0,1 0,2 0,2.9 v 0 c 0.1,2.8 0.3,5.4 0.7,7.6 1.3,5.8 4.5,9.6 12.1,9.6 7,0 10.1,-4 11.3,-9.6 0.6,-2.2 0.8,-4.8 0.8,-7.4 z m -267,-20.5 -5.1,20.5 -0.4,1.6 -0.4,-1.6 -5.7,-20.5 -4.5,-16.2 h -15.1 v 16.2 20.4 19 h 5.3 v -19 -20.5 -4.6 l 1.3,4.6 5.6,20.5 5.2,19 h 8.8 l 4.9,-19 5.3,-20.5 1.2,-4.6 v 4.6 20.5 19 h 12.1 v -19 -20.5 -16.2 h -14.4 z m 211.6,0 c 1,-1.4 2.2,-2.9 3.7,-4.4 2.3,-2.3 5.1,-4 9.3,-5 v 2.8 c -4.2,-0.2 -5.2,1.9 -6.3,3.3 -0.4,0.4 -1.2,1.8 -1.9,3.4 v 0 c -0.4,1 -0.9,2.1 -1.1,3.1 h 9.3 l -0.8,3 h -10.1 c 0,0 -1.3,4.3 -2.5,7.5 -0.5,1.5 -1,2.8 -1.5,3.8 -0.5,1.1 -1,2.1 -1.4,2.9 v 0 c -2.5,4.9 -4.3,6.6 -5.4,7.6 -4,4 -12.4,7.9 -18.4,6.5 -1.6,-0.4 -2.1,-0.5 -2.6,-0.7 -0.4,-0.2 -0.8,-0.4 -1.7,-0.8 l 0.3,-2.7 c 0,0 5.5,3.1 10.6,1.4 5.7,-1.9 8.1,-7.1 9.3,-9.3 0.4,-0.6 0.8,-1.3 1.2,-2.1 v 0 c 0.5,-0.9 0.9,-1.9 1.3,-2.9 1.8,-4 3.8,-8.6 4.5,-10.6 0.3,-0.5 0.5,-0.8 0.5,-0.8 h -7.5 c 0,0.3 0.1,0.5 0.2,0.8 1.2,5.7 -1.5,11 -4.7,13.1 -0.2,0.1 -0.5,0.3 -0.7,0.4 v 0 c -3.9,2 -10,2.4 -13.6,0 v 0 c -0.5,-0.4 -0.9,-0.7 -1.3,-1.2 -1.8,-2.1 -1.8,-5 -0.7,-7.3 1.3,-2.8 3,-6.9 8.6,-8.6 2.5,-0.7 4,-0.5 6.3,-0.3 h 15.1 c -0.1,0.2 0.7,-1.1 2,-2.9 v 0 m -18.4,14.2 c 1.2,-2.7 2.5,-5 2,-7.3 -0.2,-1.3 -1.8,-1.8 -3.8,-1.5 -0.9,0.1 -1.8,0.8 -2.3,1.5 0,0 -2.7,5 -3.3,6.3 -0.7,1.5 -1.3,3 -1.3,4.3 0,1.2 0.8,1.9 2.3,2.3 1.8,0.5 3.3,-0.5 4.5,-2.3 0.9,-1 1.3,-2 1.9,-3.3 m 168.3,-12.3 c 3.3,0 5.8,2.5 5.8,5 v 1.8 13.6 16.1 1 h -21.2 c -1.3,0 -2.5,-0.2 -3.5,-1 -2,-1.3 -3.3,-3.5 -3.3,-7.3 v -3 -5.8 -0.8 c 0,-3.6 2.5,-6.5 5.5,-6.5 h 11.3 v -2.8 c 0,0 0.3,-3.8 -0.5,-5.3 -0.5,-0.8 -1.3,-1.5 -2.3,-1.5 h -12.6 v -3.5 h 20.8 m -5.3,20.4 v -3.6 c -2.8,0 -5.3,0.9 -5.4,3.9 -0.2,4.9 -0.1,10.3 -0.1,10.3 0.3,3.5 2.3,3.8 5.5,3.5 z m 74.9,-20.5 c 3.3,0 5.8,2.5 5.8,5 v 1.8 13.6 16.2 1 h -21.2 c -1.3,0 -2.5,-0.2 -3.5,-1 -2,-1.3 -3.3,-3.5 -3.3,-7.3 v -3 -5.8 -0.8 c 0,-3.6 2.5,-6.5 5.5,-6.5 h 11.3 v -2.8 c 0,0 0.3,-3.9 -0.5,-5.3 -0.5,-0.8 -1.3,-1.5 -2.3,-1.5 h -12.6 v -3.5 h 20.8 m -5.3,20.4 v -3.6 c -2.8,0 -5.3,0.9 -5.4,3.9 -0.2,4.9 -0.1,10.3 -0.1,10.3 0.2,3.5 2.3,3.8 5.5,3.5 z m -34.6,-15.4 v 6.6 1.5 h -6.2 v -1.5 -6.6 -5 h -11.8 v 5 6.6 3 11.6 10.3 1 h 11.8 v -1 -10.3 -8.5 h 6.2 v 8.5 10.3 1 h 11.8 v -1 -10.3 -11.6 -3 -6.6 -5 h -11.8 z m 51.6,-5.1 c 1.3,0 2.3,1 2.3,2.3 0,1.3 -1,2.3 -2.3,2.3 -1.3,0 -2.3,-1 -2.3,-2.3 0,-1.3 1,-2.3 2.3,-2.3 m 0,4.3 c 1,0 1.9,-0.8 1.9,-1.9 0,-1 -0.8,-1.9 -1.9,-1.9 -1,0 -1.9,0.8 -1.9,1.9 0,1 0.9,1.9 1.9,1.9 m 0.5,-2.5 c 0,-0.2 -0.1,-0.3 -0.3,-0.4 -0.1,0 -0.2,0 -0.4,0 h -0.3 v 0.9 h 0.3 c 0.3,0 0.4,0 0.5,-0.1 0.2,-0.1 0.2,-0.2 0.2,-0.4 m 0.1,1.9 c -0.1,-0.1 -0.1,-0.2 -0.2,-0.4 -0.2,-0.3 -0.5,-0.8 -0.5,-0.8 0,0 -0.2,0 -0.3,0 v 1.1 h -0.4 v -2.6 h 0.8 c 0.3,0 0.6,0.1 0.7,0.2 0.1,0.1 0.3,0.3 0.3,0.5 0,0.4 -0.3,0.7 -0.7,0.7 0,0 0.1,0.2 0.2,0.2 0.1,0.1 0.1,0.2 0.2,0.3 0.1,0.2 0.4,0.5 0.4,0.6 h -0.5 z"
   id="path1601"
   style="fill:#949494;fill-opacity:1"
   inkscape:connector-curvature="0" />
</svg>