<svg width="145" height="32" viewBox="0 0 145 32" fill="none" xmlns="http://www.w3.org/2000/svg">
<g clip-path="url(#clip0_2435_10289)">
<path d="M138.902 24.9996C139.449 24.9996 139.773 24.9086 139.976 24.7248C140.133 24.5569 140.212 24.1671 140.212 23.5326V10.5316C140.212 9.86634 140.141 9.4249 140.005 9.20479C139.825 8.92566 139.442 8.7861 138.863 8.7861H138.421V7.84788L143.558 7.44271V23.5394C143.558 24.3657 143.775 24.8318 144.211 24.9314C144.383 24.9768 144.64 24.9996 144.97 24.9996V26.0098H138.902V24.9996ZM130.842 20.3202C131.315 19.9113 132.164 19.5867 133.389 19.3408V21.192C133.389 22.2397 133.231 23.0346 132.924 23.5775C132.526 24.3042 132.007 24.6633 131.361 24.6633C130.978 24.6633 130.655 24.4961 130.393 24.1518C130.129 23.8068 129.995 23.3101 129.995 22.6528C129.995 21.5818 130.28 20.8096 130.842 20.3202M128.661 15.3715C128.763 15.0979 129.026 14.836 129.454 14.5876C129.947 14.3051 130.503 14.1577 131.069 14.1597C132.616 14.1597 133.39 14.8802 133.39 16.3251V18.3128C131.099 18.7671 129.461 19.2916 128.463 19.8843C127.164 20.6485 126.511 21.7195 126.511 23.0961C126.511 23.9064 126.755 24.6178 127.247 25.2215C127.889 26.0024 128.84 26.3909 130.101 26.3909C130.819 26.3909 131.506 26.1844 132.159 25.7638C132.768 25.3808 133.226 24.892 133.534 24.295V24.9068C133.551 25.4269 133.551 25.8013 133.534 26.0079H137.975V24.9984H137.806C137.092 24.9984 136.736 24.5004 136.736 23.4994V17.468C136.736 14.5574 135.117 13.1003 131.888 13.1003C130.582 13.1003 129.486 13.3813 128.595 13.9432C127.705 14.5033 127.262 15.2368 127.262 16.1492C127.262 16.7776 127.465 17.275 127.878 17.6365C128.223 17.9373 128.664 18.0997 129.118 18.0933C129.64 18.0933 130.071 17.9267 130.417 17.5941C130.766 17.2651 130.942 16.8932 130.942 16.4861C130.942 15.4772 130.412 14.9706 129.365 14.9706C128.967 14.9706 128.645 15.1003 128.403 15.3567L128.663 15.4594C128.665 15.4022 128.665 15.3715 128.661 15.3715M42.6884 18.2316C44.7127 18.2316 46.3306 17.8283 47.5475 17.0272C48.922 16.1314 49.6057 14.8083 49.6057 13.0511C49.6057 11.2257 48.9112 9.86634 47.5215 8.96993C46.3391 8.20324 44.7393 7.81898 42.7186 7.81898H35.9892V8.8113C36.7888 8.8113 37.2846 8.87033 37.476 8.98346C37.8027 9.17098 37.9676 9.68128 37.9676 10.5187V23.4478C37.9676 24.0817 37.8323 24.5108 37.5582 24.7321C37.3329 24.908 36.9126 24.9922 36.2924 24.9922H35.9886V26.0024H43.9953V24.9922H43.1619C42.5199 24.9922 42.0839 24.8926 41.8514 24.6787C41.6189 24.4721 41.5023 24.0669 41.5023 23.4478V18.2316H42.6884ZM45.9326 13.0647C45.9326 15.741 44.8589 17.0788 42.718 17.0788H41.5917V8.87648H42.718C44.8589 8.87648 45.9326 10.274 45.9326 13.0647M54.7009 15.8879C55.1665 14.0281 56.1539 13.0972 57.6709 13.0972C58.2265 13.0972 58.6698 13.2503 59.0044 13.5596C59.3384 13.8688 59.5074 14.2765 59.5074 14.7868C59.5102 15.2221 59.3595 15.6439 59.0829 15.9758C58.7598 16.3583 58.3546 16.5525 57.866 16.5525C57.4004 16.5525 57.029 16.4056 56.7548 16.1154C56.4921 15.8609 56.3755 15.5479 56.3979 15.1766C56.3979 15.1421 56.4166 15.0542 56.4468 14.9147C55.9884 15.5018 55.6285 16.507 55.3579 17.9218C55.1399 19.0555 55.0276 20.0952 55.0276 21.0321V23.532C55.0276 24.1204 55.0952 24.5028 55.2227 24.6787C55.3803 24.8926 55.8085 24.9922 56.4993 24.9922H56.9161V26.0024H50.18V24.9922H50.4318C50.8938 24.9922 51.2278 24.908 51.4307 24.7401C51.633 24.5791 51.7308 24.1665 51.7308 23.532V18.0804C51.7308 16.2015 51.6819 15.1557 51.5805 14.9472C51.4379 14.6091 51.1601 14.4406 50.7471 14.4406H50.3944V13.4335H54.6151L54.7009 15.8879ZM68.6809 23.998C68.6284 24.0294 68.5758 24.0749 68.5082 24.1136L68.6809 24.0147C68.4708 24.603 68.0836 25.1306 67.5129 25.5818C66.8664 26.1082 66.0616 26.3922 65.2338 26.386C63.8067 26.386 62.8006 25.9882 62.2148 25.1853C61.7492 24.5575 61.5124 23.572 61.5124 22.2335V16.9682C61.5124 15.7828 61.4599 15.0911 61.3585 14.8925C61.2159 14.6269 60.8814 14.4892 60.3487 14.4892H60.2436V13.436H64.9077V22.6774C64.9077 23.9003 65.4071 24.5127 66.406 24.5127C67.2321 24.5127 67.7914 23.9316 68.0806 22.7463C68.2081 22.2722 68.2684 21.6224 68.2684 20.7961V16.9731C68.2684 15.6654 68.2087 14.9448 68.0843 14.8052C67.9043 14.5968 67.5287 14.488 66.9537 14.488H66.601V13.4348H71.6932V22.8674C71.6932 23.8997 71.7536 24.5034 71.8774 24.6645C72.0351 24.8859 72.3394 24.9928 72.7863 24.9928H73.1052V26.0024H68.5843L68.5088 23.9765L68.5843 24.0294L68.6066 24.0841L68.6809 23.998V23.998ZM78.6962 13.1464C77.0325 13.1464 75.6887 13.8731 74.6669 15.3198C73.7659 16.6085 73.3154 18.0804 73.3154 19.7392C73.3154 21.559 73.6457 23.0346 74.3215 24.1745C75.1778 25.6495 76.5028 26.3842 78.3025 26.3842C79.2259 26.3842 80.0291 26.0934 80.7133 25.5124C81.2466 25.0463 81.5956 24.5336 81.7575 23.9753L81.6711 24.0442L81.5697 23.9452L81.656 26.0024H86.0833V25.007H85.8617C85.355 25.007 85.0198 24.8693 84.8592 24.6018C84.7318 24.4106 84.6708 24.0515 84.6708 23.5388V7.43717L79.4892 7.8405V8.78118H79.8274C80.4808 8.78118 80.9011 8.96255 81.0938 9.32222C81.2067 9.53434 81.2744 10.0139 81.2967 10.7634C81.2967 12.7855 81.3305 13.9684 81.3982 14.3054C80.918 13.5307 80.0134 13.1464 78.6962 13.1464M81.3239 18.3786V20.9252C81.3239 21.6205 81.2719 22.2015 81.1705 22.6602C80.8625 24.0522 80.209 24.7549 79.218 24.7549C77.8284 24.7549 77.1303 23.0801 77.1303 19.7392C77.1303 18.2525 77.2136 17.1569 77.37 16.4474C77.6883 15.077 78.323 14.3914 79.27 14.3914C80.6378 14.3908 81.3239 15.7213 81.3239 18.3786M89.8554 19.4299H97.3699C97.3578 17.54 96.9417 16.0484 96.1234 14.9589C95.2 13.7182 93.8328 13.0972 92.0228 13.0972C90.3591 13.0972 88.9815 13.7071 87.8842 14.9245C86.7803 16.1787 86.2325 17.7767 86.2325 19.7164C86.2325 21.7121 86.7132 23.2947 87.6813 24.4653C88.7182 25.7503 90.193 26.3842 92.1044 26.3842C93.5876 26.3842 94.8377 25.8265 95.8517 24.7174C96.7388 23.746 97.1996 22.7063 97.234 21.5904H95.9839C95.9718 22.4155 95.6644 23.1889 95.0605 23.9077C94.3763 24.7334 93.5622 25.1385 92.6117 25.1385C91.2565 25.1385 90.4001 24.1524 90.0474 22.1794C89.9206 21.5209 89.8554 20.611 89.8554 19.4299M91.986 14.0564C93.2844 14.0564 93.9379 15.4957 93.9379 18.3743H89.8554C89.8675 17.9254 89.8862 17.5522 89.9085 17.2528C90.0807 15.1231 90.7727 14.0564 91.986 14.0564M102.256 15.0696C102.538 14.4867 102.988 14.0146 103.603 13.6475C104.22 13.2805 104.902 13.0966 105.657 13.0966C108.132 13.0966 109.37 14.4652 109.37 17.2043V22.9283C109.37 23.5621 109.375 23.9439 109.385 24.0749C109.429 24.686 109.813 24.9916 110.523 24.9916H110.782V26.0011H105.975V16.7634C105.975 16.1246 105.901 15.666 105.75 15.3868C105.533 14.9798 105.124 14.7751 104.518 14.7751C103.948 14.7751 103.49 15.0579 103.145 15.6278C102.804 16.1996 102.63 17.0401 102.63 18.1529V22.8895C102.63 23.9526 102.678 24.5483 102.783 24.6633C102.99 24.8852 103.358 24.9922 103.884 24.9922H104.09V26.0024H97.8271V24.9922H98.1616C98.8006 24.9922 99.1418 24.6873 99.1907 24.0749C99.2131 23.9304 99.2245 23.5166 99.2245 22.836V16.5489C99.2245 15.5719 99.1533 14.9774 99.0107 14.7634C98.8724 14.5476 98.5711 14.4406 98.1139 14.4406H97.8289V13.4335H102.256V15.0696V15.0696ZM115.441 26.3836C113.387 26.3836 112.354 25.1976 112.354 22.828V14.4867H110.146V13.479H110.485C111.694 13.479 112.715 12.7874 113.557 11.3954C114.277 10.2279 114.646 9.03264 114.668 7.81898H115.705V13.479H118.062V14.4867H115.705V23.2486C115.705 24.2815 116.018 24.801 116.644 24.801C117.196 24.801 117.553 24.311 117.714 23.3322C117.77 22.9805 117.8 22.2765 117.8 21.2295H118.957C118.957 22.9584 118.803 24.1419 118.498 24.7617C117.986 25.8481 116.965 26.3836 115.441 26.3836M15.479 1.30677C6.78023 1.30677 1.09739 8.58566 1.09739 15.3616C1.09739 19.2535 2.02863 21.1914 3.04985 23.0488C4.338 19.5252 6.91249 12.515 6.91249 12.515C6.91249 12.515 8.11186 11.8842 8.11186 11.9764L9.84087 7.50173L10.9527 6.91457L12.3308 3.93084L15.3444 4.42823L21.4723 7.9069L28.3515 9.85159C26.579 5.24287 21.5623 1.30677 15.479 1.30677ZM15.3884 31.3151C11.6164 31.3151 7.00126 29.9618 3.67067 25.8026H27.0669C24.356 29.3734 19.6992 31.3151 15.3884 31.3151M20.0078 25.0838H17.8748L21.8328 20.0644L22.2308 20.8323L20.0078 25.0838ZM22.0955 9.12671L15.3063 5.107L12.8188 4.65387V6.50633L14.7284 8.31637L12.0639 8.08704C12.0639 8.08704 12.1502 8.22476 14.3678 10.6195L24.4912 12.3361L26.2637 13.5116L21.6522 13.7373L19.7445 20.8323L13.4831 25.0838H9.3976L10.7757 22.3239L10.5523 22.2329L6.86659 25.0851H5.98065L9.7527 19.7017C9.93086 18.1671 9.84087 18.8446 10.0643 16.0859L9.48758 15.2743L7.9778 21.2381L4.82536 25.0844H4.02517L5.88946 22.4149L8.50864 14.2365L7.84191 14.5501L6.68723 17.8049L5.88946 18.2556C5.88946 18.2556 4.02517 22.8662 3.04864 25.1213C1.63004 23.0506 0.0302734 20.2476 0.0302734 15.3622C0.0302734 8.04093 6.20168 0.315063 15.479 0.315063C24.4013 0.315063 29.1553 7.546 29.9512 11.2946L22.0955 9.12671V9.12671ZM26.489 19.7011L25.1972 20.8323L22.6288 25.0838H20.939L22.6288 22.0478L23.958 20.9239L25.873 15.4551L27.9082 16.3134L26.489 19.7011V19.7011ZM27.6902 25.0838H24.2732L27.5102 19.8843L28.4867 16.4935L30.5292 17.2178C30.3492 19.8388 29.508 22.4997 27.6902 25.0838M23.5147 18.8446L22.4935 19.0291L22.7641 16.9466L22.4935 16.5396L22.7641 14.1885L25.3778 15.2743L23.5147 18.8446ZM119.777 24.9996H120.104C120.592 24.9996 120.899 24.8385 121.023 24.5336C121.102 24.3116 121.139 23.7607 121.139 22.8742V16.3023C121.139 15.4114 121.055 14.8894 120.875 14.7308C120.703 14.574 120.443 14.496 120.102 14.496H119.776V13.4883H124.488V22.8735C124.488 23.9064 124.548 24.5102 124.677 24.6854C124.834 24.8994 125.127 24.999 125.57 24.999H125.909V26.0091H119.777V24.9996V24.9996ZM120.674 9.96779C120.674 9.40031 120.87 8.92013 121.265 8.52049C121.45 8.32742 121.673 8.17482 121.918 8.07197C122.163 7.96912 122.426 7.91819 122.691 7.92227C122.958 7.91835 123.222 7.96933 123.469 8.07213C123.715 8.17494 123.939 8.32745 124.126 8.52049C124.528 8.92013 124.727 9.39969 124.727 9.96779C124.727 10.5371 124.528 11.0247 124.126 11.4317C123.728 11.8442 123.251 12.049 122.691 12.049C122.132 12.049 121.659 11.8442 121.265 11.4317C121.074 11.2412 120.923 11.0132 120.822 10.7616C120.72 10.5099 120.67 10.2398 120.674 9.96779" fill="#949494"/>
</g>
<defs>
<clipPath id="clip0_2435_10289">
<rect width="145" height="31" fill="white" transform="translate(0 0.315063)"/>
</clipPath>
</defs>
</svg>
