<svg width="103" height="52" viewBox="0 0 103 52" fill="none" xmlns="http://www.w3.org/2000/svg">
<path fill-rule="evenodd" clip-rule="evenodd" d="M21.7115 50.7196L21.5488 50.6115C20.8452 50.2327 20.5199 49.1497 20.1951 48.2293L16.351 38.0499L12.7232 37.9952V38.3741L12.9399 38.4287C12.9399 38.4287 13.1026 38.4833 13.2106 38.5367C13.4274 38.6989 13.5895 38.9156 13.3733 39.5657C13.2647 39.8905 13.1566 40.1072 13.1566 40.1072L10.1789 48.2293C9.85351 49.095 9.58333 50.2321 8.8251 50.6115L8.55493 50.7196V51.0455H12.6697V50.7196L12.3449 50.6115C12.0201 50.4494 11.9115 50.07 12.2909 48.9875L12.7778 47.5245H17.1093C17.2179 47.7959 17.326 48.2293 17.5421 48.8783C17.7589 49.4739 18.0842 50.3402 17.6508 50.6109L17.38 50.719V51.0449H21.7115V50.7196ZM16.4051 45.4677H13.4814L14.9432 41.4616L16.4051 45.4677ZM48.2415 37.9964V38.3224L48.5662 38.4845C48.9997 38.6466 48.9997 39.8371 48.9997 40.5953V48.446C48.9997 49.0962 48.9997 50.3954 48.5662 50.6127L48.2415 50.7207V51.0467H52.4097V50.7207L52.1395 50.6127C51.6515 50.3959 51.6515 49.0968 51.7061 48.446V40.5947C51.6515 39.5123 51.8141 38.5919 52.1395 38.4839L52.4097 38.3218V37.9958H48.2415V37.9964ZM32.6481 37.9964V38.3224L32.9188 38.4845C33.4063 38.6466 33.4063 39.8371 33.3523 40.5953V48.446C33.3523 49.0962 33.4063 50.3954 32.9188 50.6127L32.6481 50.7207V51.0467H36.8169V50.7207L36.4921 50.6127C36.0592 50.3959 36.0592 49.0968 36.0592 48.446V40.5947C36.0592 39.5123 36.1673 38.5919 36.4921 38.4839L36.8169 38.3218V37.9958H32.6481V37.9964ZM78.4521 40.5947C78.5067 39.8365 78.5067 38.646 78.0199 38.4839L77.7485 38.3218V37.9958H81.9179V38.3218L81.5931 38.4839C81.2672 38.5919 81.1597 39.5123 81.1597 40.5947V48.4455C81.1597 49.0956 81.1597 50.3948 81.5931 50.6121L81.9179 50.7202V51.0461H77.7485V50.7202L78.0199 50.6121C78.5067 50.3954 78.5067 49.0962 78.4521 48.4455V40.5947ZM9.31258 36.9134C8.39224 35.993 6.98443 35.4515 5.36048 35.4515H0V35.7763L0.270755 35.8856C0.97437 36.2104 0.920335 37.8883 0.920335 39.1335V47.689C0.920335 48.6093 0.97437 50.2879 0.270755 50.558L0 50.7202V51.0461H4.87301V50.7202L4.65629 50.6121C3.78999 50.0165 3.78999 48.7714 3.78999 47.4722V44.7101L4.3315 44.9268C4.3315 44.9268 5.14318 45.1981 5.90141 45.1981C8.17552 45.1981 10.6117 43.6276 10.6117 40.2165C10.6123 38.9167 10.1789 37.7797 9.31258 36.9134ZM4.4936 43.9518H4.06016L3.78941 44.0065V38.1591C4.1142 38.1056 4.49302 38.1056 4.9805 38.1056C6.00948 38.1056 6.76713 38.3758 7.25461 38.8092C7.68805 39.2427 7.90419 39.8377 7.90419 40.6499C7.90477 42.6521 6.17217 43.8438 4.4936 43.9518ZM31.2949 47.5251L31.1862 47.5797C31.0781 47.689 30.9155 47.7965 30.9155 47.7965C30.1572 48.2833 28.9667 48.8789 27.667 48.8789C26.638 48.8789 25.7723 48.5541 25.1767 47.9039C24.3645 47.0928 23.877 45.7931 23.877 44.2226C23.877 41.8404 25.2848 40.2159 27.2882 40.2159C28.2631 40.2159 29.2375 40.5418 30.1038 41.1362L30.3745 41.353L30.8614 41.6789V38.2677L30.4826 38.2131C29.2915 37.8883 28.2631 37.7262 27.3428 37.7262C25.6102 37.7262 24.0937 38.3218 22.9572 39.4577C21.7121 40.704 21.0625 42.49 21.0625 44.4939C21.0625 46.5513 21.6581 48.2828 22.9032 49.4744C24.0943 50.6661 25.8269 51.3151 27.8843 51.3151C28.9133 51.3151 29.833 51.0984 30.5912 50.7196H30.6453L30.7534 50.6661L30.808 50.5569L31.6743 47.5245H31.2949V47.5251ZM63.3468 47.5251L63.022 47.7965C62.2097 48.2833 61.0181 48.8789 59.7183 48.8789C58.6899 48.8789 57.8777 48.5541 57.2287 47.9039C56.4164 47.0928 55.9824 45.7931 55.9824 44.2226C55.9824 41.8404 57.3908 40.2159 59.3935 40.2159C60.3139 40.2159 61.2888 40.5418 62.2092 41.1362L62.9128 41.6789V38.2677L62.588 38.2131C61.3429 37.8883 60.3685 37.7262 59.4482 37.7262C57.6609 37.7262 56.1445 38.3218 55.0074 39.4577C53.8169 40.704 53.1133 42.49 53.1133 44.4939C53.1133 46.5513 53.7623 48.2828 54.954 49.4744C56.1445 50.6661 57.8771 51.3151 59.9345 51.3151C60.9634 51.3151 61.8838 51.0984 62.6966 50.7196L62.8587 50.6661L63.7791 47.5251H63.3468ZM46.0208 38.0504L42.6102 37.9958H38.4408V38.3218L38.7116 38.4839C39.1985 38.646 39.1985 39.8365 39.1985 40.5947V48.4455C39.1985 49.0956 39.1985 50.3948 38.7116 50.6121L38.4408 50.7202V51.0461H42.6102V50.7202L42.3395 50.6121C41.8526 50.3954 41.8526 49.0962 41.8526 48.4455V45.8466H44.1807C44.1807 45.8466 45.2097 45.7931 45.3178 46.1725L45.4258 46.3881L45.6966 46.4427L45.8587 42.9234H45.5339L45.4253 43.1402C45.3712 43.465 44.4509 43.519 44.1801 43.519H41.852V40.2699H44.9384C45.642 40.2699 46.0208 40.432 46.1294 40.8114L46.1841 41.0282H46.5089L47.2671 37.9424C47.2665 37.943 46.2921 38.0504 46.0208 38.0504ZM91.0678 38.0504L87.6032 37.9958H83.4338V38.3218L83.704 38.4839C84.192 38.646 84.192 39.8365 84.192 40.5947V48.4455C84.192 49.0956 84.192 50.3948 83.7586 50.6121L83.4338 50.7202V51.0461H87.6032V50.7202L87.3318 50.6121C86.845 50.3954 86.845 49.0962 86.845 48.4455V45.8466H89.1725C89.1725 45.8466 90.2015 45.7931 90.3642 46.1725L90.4188 46.3881L90.689 46.4427L90.8511 42.9234H90.5263L90.4717 43.1402C90.3636 43.465 89.4433 43.519 89.1725 43.519H86.845V40.2699H89.9848C90.6338 40.2699 91.0132 40.432 91.1218 40.8114L91.2299 41.0282H91.5012L92.2595 37.9424C92.2595 37.943 91.2845 38.0504 91.0678 38.0504ZM101.788 47.8511C100.976 48.5001 99.6762 48.8795 98.377 48.8795C97.0233 48.8795 96.4277 48.6628 96.4277 48.6628V45.3602H98.323C98.3776 45.3602 99.352 45.3056 99.5147 45.685L99.5693 45.8471L99.8395 45.9018L100.056 42.7073H99.6773L99.6227 42.924C99.5147 43.1942 98.6489 43.2488 98.4322 43.2488H96.4283V40.2711H98.9191C99.5693 40.2711 100.218 40.2711 100.435 40.8126L100.49 41.0293H100.814L101.41 37.9435C101.41 37.9435 100.435 37.997 100.218 37.997H93.0177V38.3229L93.2879 38.485C93.7759 38.6471 93.7759 39.8377 93.7759 40.5959V48.4466C93.7759 49.0968 93.7759 50.3419 93.3971 50.6132C93.2879 50.6679 93.0183 50.7213 93.0183 50.7213V51.0473H101.301L102.114 47.8528H101.788V47.8511ZM76.8828 47.1463L76.7207 47.2555C75.6371 48.2305 74.3374 48.7174 72.9307 48.7174C71.5769 48.7174 70.9814 48.6628 70.9814 48.6628V38.5379C70.9814 37.6722 70.9814 36.1557 71.7937 35.8861L72.0638 35.7769V35.4521H67.2454V35.7769L67.5168 35.8861C68.1658 36.1563 68.1123 37.6722 68.1123 38.5379V47.9591C68.1123 48.8249 68.1658 50.3413 67.5168 50.6121L67.2454 50.7202V51.0461H75.9084L77.2622 47.1469H76.8828V47.1463Z" fill="#949494"/>
<path fill-rule="evenodd" clip-rule="evenodd" d="M80.2393 29.4421C80.2393 29.1707 80.2393 28.9006 80.1847 28.6298C80.0767 28.6298 72.4432 29.1179 68.7061 29.1179C63.7796 29.1179 56.7406 29.0632 56.7406 29.0632L24.0925 28.7385V28.0337L56.6871 27.9256C56.6871 27.9256 63.7796 28.0337 68.7061 28.0337C72.4432 28.0337 80.0226 27.9802 80.1847 28.0337C80.1301 27.6014 80.1301 27.0593 80.0767 26.6264C79.9134 26.6264 72.3886 27.222 68.7061 27.222C63.7796 27.222 56.7406 26.8966 56.7406 26.8966L48.3489 26.9512L37.3038 26.6264L24.2552 26.5178C24.2552 26.4097 24.3093 25.8682 24.3633 25.7596C24.7967 25.8136 25.2296 25.9763 26.7995 25.9763C28.8569 25.9763 29.8859 25.4894 29.8859 25.4894C29.8859 25.4894 31.4018 25.9228 33.4592 25.9228C34.4335 25.9228 36.5455 24.9479 37.8447 25.3273C39.9561 25.9769 40.7684 25.0025 40.7684 25.0025C40.7684 25.0025 41.2553 25.6521 42.1222 25.8688C42.8804 26.0309 43.7461 25.49 43.7461 25.49C43.7461 25.49 44.9372 26.3563 48.2943 26.3563C52.4631 26.3022 53.5462 24.1368 53.5462 24.1368H53.7083C53.7083 24.1368 53.5462 24.7323 53.8175 25.2738C54.2509 26.1942 55.5501 26.3028 55.5501 26.3028C55.3868 23.7039 56.5239 22.0254 56.5239 22.0254H56.6871L56.5239 22.5669C56.0916 24.4075 56.9027 26.1401 56.9027 26.1401L57.2815 25.9234C57.2815 25.9234 56.9027 24.7323 57.3361 23.1078C57.715 21.4292 58.2565 20.617 58.2565 20.617H58.4732C58.4732 20.617 58.0398 21.8621 58.0398 22.8911C58.0398 23.7574 58.5278 25.7067 60.0971 26.2476C61.3434 26.7351 62.2092 25.7061 62.2092 25.7061C62.2092 25.7061 64.7546 26.3557 66.9741 26.3557C72.0092 26.3557 73.1463 25.544 73.1463 25.544C73.1463 25.544 73.471 26.1396 76.0694 26.1396C77.5852 26.1396 78.7223 26.0309 79.4259 25.9228C79.6426 25.9228 79.8594 25.8688 79.9674 25.8688C79.9128 25.4354 79.8594 25.0025 79.7507 24.5696C78.3435 16.6649 73.7406 9.84254 67.3529 5.45701L66.9741 6.48599C73.1997 10.6554 77.7479 17.0983 79.1563 24.7864C78.4515 25.0031 77.4237 25.3279 76.0699 25.3279C74.0672 25.3279 73.6337 24.6783 73.6337 24.6783C73.6337 24.6783 72.8755 25.2198 71.5763 25.2198C70.4393 25.2198 69.519 24.3541 69.519 24.3541C69.519 24.3541 68.3273 25.4911 66.2699 25.4911C63.7802 25.4911 62.5339 23.9206 62.1017 23.2711C61.6136 22.5674 61.3969 21.9719 61.3969 21.9719H61.1813C61.2348 22.2427 61.2894 22.5674 61.4515 22.9463C61.7763 23.8126 61.993 24.1374 62.1017 24.3541C62.1551 24.5162 62.3184 24.841 61.9924 24.949C61.7757 25.0031 61.6136 24.895 61.5602 24.7869C61.3969 24.5702 60.9646 23.9206 60.6387 22.9463C60.3139 21.9173 60.2598 21.1596 60.2064 20.6181H60.0443C59.9897 21.1596 59.881 21.8632 59.935 22.8382C60.0443 23.8672 60.3139 24.6248 60.4231 24.7869C60.4231 24.841 60.4766 24.949 60.4766 25.0577C60.5312 25.3831 60.2598 25.5452 59.9897 25.4911C59.7729 25.4371 59.5562 25.2204 59.4481 25.0037C58.3657 23.163 59.6649 19.7518 60.0971 18.5607C60.6387 16.9902 60.8019 15.529 60.8019 15.529C60.8019 15.529 61.5602 14.3379 61.9378 13.5256C62.4259 12.5513 62.8047 11.5769 63.1295 11.1975C63.6175 10.7106 64.3758 9.51891 65.2415 8.00303C65.3496 7.73228 66.0526 6.2164 66.2164 5.78354C66.3245 5.51279 66.4332 5.24203 66.5412 4.91724C66.9201 3.45539 67.1902 1.93952 67.1902 1.66876C67.2448 1.28994 66.5958 1.07322 66.5958 1.07322C66.5958 1.07322 66.0532 0.856496 65.6209 0.856496C65.4588 0.856496 65.1328 1.07322 64.9173 1.18128C64.5913 1.34339 64.4292 1.23532 64.4292 1.23532C64.4292 1.23532 63.9423 1.0186 63.671 1.07263C63.4543 1.12667 63.2387 1.39801 63.022 1.50608C62.6972 1.66818 62.5886 1.56011 62.5886 1.56011C62.5886 1.56011 62.1551 1.45146 61.8849 1.56011C61.6136 1.66818 61.3434 1.77683 60.91 2.15566C57.6373 0.932346 54.1709 0.308825 50.6771 0.314987C34.5422 0.314987 21.3856 13.3095 21.1694 29.3898V30.202H80.2393V29.4421ZM42.5562 23.486C42.4481 23.432 42.5021 23.3774 42.4481 23.3234C43.2604 20.7791 45.101 15.4726 48.1868 11.4119C48.5116 11.5746 48.7824 11.7372 49.0531 11.8993C46.9417 14.4982 44.018 19.3172 42.5562 23.486V23.486ZM44.3968 24.3529C45.047 21.9702 46.5083 16.9891 49.8114 12.3328C50.1362 12.4949 50.4069 12.7116 50.7317 12.8743C48.5116 15.852 45.8047 20.5623 44.5595 24.461C44.4509 24.4064 44.5055 24.4064 44.3968 24.3529ZM46.725 24.9479H46.5623C46.9957 23.0532 48.2949 18.1261 51.3807 13.3072C51.7055 13.5239 51.9768 13.7406 52.247 13.9027C50.1356 16.9891 47.754 21.3746 46.725 24.9479V24.9479ZM48.9451 24.8938C48.891 24.8938 48.891 24.8938 48.783 24.9479C49.2158 23.1612 50.2988 18.8297 52.9524 14.3902C53.2771 14.6609 53.6013 14.8771 53.8181 15.0398C51.8682 18.0175 49.8654 21.7534 48.9451 24.8938V24.8938ZM56.7412 17.0431C56.1456 17.0431 55.334 16.7724 55.0626 16.3395C55.1172 17.1518 56.0916 17.8554 56.9579 17.91V17.964C56.7958 18.0181 56.5791 18.0181 56.3624 18.0181C55.2799 18.0181 54.3596 17.1518 54.3596 16.0693C54.3596 15.9066 54.4142 15.7445 54.4142 15.5819C55.2253 16.2314 57.0671 17.2064 58.0409 15.7986L58.0955 15.9066C57.8782 16.5016 57.3913 17.0431 56.7412 17.0431V17.0431ZM60.0449 12.4949C59.9902 12.8737 59.7735 12.9824 59.5568 13.0904C59.3947 13.1445 59.1245 13.3612 59.0699 13.4693C59.0153 13.5233 58.9607 13.5233 58.9607 13.4693C58.9607 13.4693 58.7986 13.4152 58.7451 13.3612L58.6905 13.3072V13.1445L58.7451 13.0358V12.8191C58.7451 12.8191 58.6359 12.5483 58.6905 12.2776C58.7451 12.0068 59.0693 11.7361 59.0693 11.7361L59.1774 11.7901C59.1774 11.7901 59.0153 11.9528 58.9607 12.2236C58.9072 12.3322 58.8526 12.711 58.9607 12.9272V13.0899L59.0699 13.1439C59.0699 13.1439 59.1245 13.0899 59.178 13.0899C59.3401 12.9272 59.4493 12.8731 59.4493 12.8731C59.4493 12.8731 59.1245 12.6564 59.2872 12.3862C59.3953 12.1155 59.7195 12.2236 59.7195 12.2236C59.8287 11.8988 59.7741 11.574 59.7741 11.574L59.9362 11.628C59.9356 11.6292 60.0977 12.062 60.0449 12.4949V12.4949ZM61.5607 2.4787C61.8309 2.3166 62.0476 2.15391 62.3718 2.04584C62.6978 1.99181 62.9674 2.04584 63.2387 2.04584C63.4543 2.04584 63.8877 1.66644 64.0498 1.72047C64.2665 1.72047 64.4833 1.77451 64.6454 1.88258C64.8075 1.93719 65.4576 1.50375 65.6203 1.50375C65.7284 1.50375 66.1618 1.50375 66.1072 1.99123C65.9991 2.37005 65.7824 3.45307 65.2415 4.75223C65.0794 5.18567 64.8627 5.61853 64.6459 6.05197C64.4292 6.59348 64.1044 7.08096 63.7802 7.56785C62.4811 9.67927 61.2894 9.24641 58.7451 10.3829C56.7958 11.3032 55.9829 11.9534 55.6587 12.2782L55.1718 11.9534C55.4966 11.5746 56.3089 11.0331 57.9875 10.1668C59.7735 9.24642 62.6978 8.00071 63.3474 7.02634C63.3474 6.91827 63.2928 6.86365 63.2928 6.80962C62.5891 7.24248 62.0476 7.56785 61.7234 7.72995C58.8538 9.1918 57.8788 9.51659 56.5791 10.1662C55.9835 10.491 55.0632 11.0325 54.4671 11.4653L53.9802 11.1405C54.5217 10.7071 55.2793 10.1656 56.1997 9.73273C57.4448 9.08315 58.5284 8.54164 61.6136 6.75501C61.8849 6.59232 63.4543 5.61795 64.5913 4.80569C64.6459 4.69762 64.6459 4.58896 64.7006 4.48089C63.6181 5.13047 60.207 6.91711 59.5022 7.29593C56.6331 8.75778 56.7412 8.64971 55.4961 9.29929C54.6303 9.73273 53.8175 10.2742 53.2766 10.6531C53.1145 10.5444 52.9518 10.3823 52.8431 10.2742C53.4933 9.8408 54.1423 9.35391 55.0626 8.86643C56.3618 8.21685 56.5245 8.05474 59.3941 6.59232C60.856 5.8887 63.4543 4.1561 64.7552 3.2898C64.8086 3.18115 64.8086 3.12712 64.8086 3.07308C63.4014 3.83073 59.3401 5.94216 58.6365 6.32156C55.7668 7.78341 55.442 7.89148 54.1429 8.54106C53.3846 8.91988 52.681 9.35332 52.1941 9.73215L51.8682 9.40736C52.3016 9.02854 53.1145 8.48702 54.1969 7.83744C55.4961 7.13383 55.7128 7.02518 58.5818 5.56333C58.8532 5.45468 60.207 4.69703 61.6142 3.83073C61.993 3.61401 62.4264 3.34384 62.8059 3.12712C63.076 2.96502 63.2927 2.69368 63.5095 2.58561L63.4014 2.53157C62.7512 2.74829 61.993 3.18115 61.7763 3.2898C60.3145 4.1561 58.3663 5.0224 57.7702 5.29316C54.9005 6.755 54.5757 6.91769 53.3294 7.51265C52.6258 7.89148 51.8136 8.43299 51.272 8.81239C51.1634 8.70374 51.0013 8.54164 50.8932 8.4876C51.4882 8.00013 52.301 7.40458 53.3289 6.91769C54.5751 6.26753 54.8447 6.15946 57.715 4.69762C58.2565 4.42686 58.6899 4.1561 59.0687 3.93938C59.1245 3.94055 60.4237 3.23693 61.5607 2.4787V2.4787ZM51.9228 1.77509C54.6838 1.77509 57.3367 2.15391 59.881 2.91214C59.3395 3.29097 58.6359 3.67037 57.7702 4.15727C54.5211 5.7818 54.0877 5.88987 52.6804 6.6481C51.7601 7.08154 51.0559 7.56843 50.4604 8.00187C50.4063 8.00187 50.4063 7.94784 50.4063 7.94784C50.4063 7.94784 49.8108 7.18961 49.432 6.91885C49.0531 6.6481 48.2949 6.48541 48.0241 6.32331C47.4826 6.10659 47.4286 5.88987 46.725 5.67373C46.0754 5.45701 45.696 5.56508 45.2631 5.51162C44.9384 5.45701 44.5049 5.24087 43.9634 5.2949C43.6926 5.34894 43.2058 5.56566 42.881 5.61969C42.4475 5.61969 41.9606 5.45701 41.6353 5.51162C41.3105 5.56566 40.877 5.94448 40.3361 6.05313C39.9573 6.10717 39.5779 6.05313 39.3071 6.10717C39.0364 6.1612 38.4414 6.64752 38.1706 6.75617C37.8999 6.86424 37.2503 6.91885 37.3043 7.45978C37.3584 7.94726 38.3874 8.05533 38.3874 8.05533C38.3874 8.05533 43.0436 8.7049 47.4292 10.9784C46.779 11.7907 46.1841 12.657 45.5885 13.5779C45.2637 13.4693 44.7762 13.3612 44.5055 13.3072C44.0186 13.2531 43.5311 13.5239 43.2063 13.4693C42.5562 13.4693 42.5027 13.3072 41.7445 13.4152C41.203 13.5233 41.1489 13.686 40.6074 13.8481C40.3367 13.9567 39.9038 13.7941 39.3083 14.0108C39.0375 14.0648 38.55 14.5523 38.2793 14.7144C38.0085 14.823 37.5757 14.823 37.2503 15.0932C36.9795 15.2559 36.9795 15.5267 36.4921 15.8514C36.1132 16.0682 35.8425 15.9595 35.5177 16.3383C35.301 16.501 35.247 16.8258 34.7054 17.2587C33.9472 17.8542 34.0559 18.3417 34.1099 18.5044C34.3266 18.9919 35.4637 18.5044 35.4637 18.5044C35.4637 18.5044 39.1996 17.2052 43.7473 16.9885C42.6102 19.3713 41.5818 21.6448 41.0403 23.1066C40.9322 23.4855 40.8236 23.7562 40.7155 24.027H40.6069C40.3361 23.8102 40.3361 23.4314 40.4982 22.6192C40.6609 21.7529 41.3105 20.1829 41.5272 19.7501H41.2564C41.0397 20.1829 40.3901 21.374 40.2274 21.6988C40.0107 22.1317 39.9027 22.2944 39.4158 23.3228C39.3071 23.5395 39.0369 24.0264 38.7656 24.0264C38.5489 24.0264 38.3327 23.8643 38.3327 23.7016C38.3327 23.5929 38.4954 23.3768 38.5495 23.3228C39.199 22.3484 39.5244 21.374 39.6865 20.9946H39.4158C39.4158 20.9946 37.7372 24.8387 34.218 24.8387C32.9728 24.8387 31.7818 24.2437 31.7818 24.2437C31.7818 24.2437 30.1032 25.0013 27.8297 25.0013C26.043 25.0013 24.96 24.6765 24.5271 24.5144C26.9634 11.6292 37.8999 1.77509 51.9228 1.77509V1.77509Z" fill="#949494"/>
</svg>
