<?xml version="1.0" encoding="UTF-8" standalone="no"?>
<svg
   xmlns:dc="http://purl.org/dc/elements/1.1/"
   xmlns:cc="http://creativecommons.org/ns#"
   xmlns:rdf="http://www.w3.org/1999/02/22-rdf-syntax-ns#"
   xmlns:svg="http://www.w3.org/2000/svg"
   xmlns="http://www.w3.org/2000/svg"
   xmlns:sodipodi="http://sodipodi.sourceforge.net/DTD/sodipodi-0.dtd"
   xmlns:inkscape="http://www.inkscape.org/namespaces/inkscape"
   width="1200pt"
   height="392pt"
   viewBox="0 0 1200 392"
   version="1.1"
   id="svg136"
   sodipodi:docname="Corebridge_White.svg"
   inkscape:version="0.92.4 (5da689c313, 2019-01-14)">
  <metadata
     id="metadata142">
    <rdf:RDF>
      <cc:Work
         rdf:about="">
        <dc:format>image/svg+xml</dc:format>
        <dc:type
           rdf:resource="http://purl.org/dc/dcmitype/StillImage" />
        <dc:title></dc:title>
      </cc:Work>
    </rdf:RDF>
  </metadata>
  <defs
     id="defs140" />
  <sodipodi:namedview
     pagecolor="#ffffff"
     bordercolor="#666666"
     borderopacity="1"
     objecttolerance="10"
     gridtolerance="10"
     guidetolerance="10"
     inkscape:pageopacity="0"
     inkscape:pageshadow="2"
     inkscape:window-width="2516"
     inkscape:window-height="1255"
     id="namedview138"
     showgrid="false"
     inkscape:zoom="0.89449008"
     inkscape:cx="648.56011"
     inkscape:cy="354.48427"
     inkscape:window-x="1293"
     inkscape:window-y="43"
     inkscape:window-maximized="0"
     inkscape:current-layer="#ffffffff" />
  <g
     id="#ffffffff">
    <path
       fill="#ffffff"
       opacity="1.00"
       d=" M 1184.10 2.18 C 1189.96 -2.17 1199.28 1.94 1200.00 9.23 L 1200.00 12.23 C 1199.12 19.16 1190.51 23.20 1184.64 19.43 C 1178.31 16.01 1178.00 5.98 1184.10 2.18 Z"
       id="path77"
       style="fill:#949494;fill-opacity:1" />
    <path
       fill="#ffffff"
       opacity="1.00"
       d=" M 1144.11 14.20 C 1151.84 12.10 1160.38 17.99 1161.13 25.95 C 1162.31 33.39 1156.35 40.90 1148.87 41.51 C 1141.41 42.56 1134.00 36.47 1133.53 28.97 C 1132.75 22.30 1137.56 15.62 1144.11 14.20 Z"
       id="path79"
       style="fill:#949494;fill-opacity:1" />
    <path
       fill="#ffffff"
       opacity="1.00"
       d=" M 1083.50 28.70 C 1091.16 26.24 1100.13 28.37 1105.64 34.30 C 1112.36 41.05 1113.57 52.41 1108.50 60.46 C 1104.17 67.75 1095.27 71.90 1086.90 70.53 C 1077.24 69.26 1069.15 60.67 1068.65 50.92 C 1067.65 41.22 1074.19 31.50 1083.50 28.70 Z"
       id="path81"
       style="fill:#949494;fill-opacity:1" />
    <path
       fill="#ffffff"
       opacity="1.00"
       d=" M 1171.21 39.24 C 1177.15 36.71 1184.72 40.00 1186.82 46.13 C 1189.20 51.94 1186.04 59.20 1180.19 61.45 C 1174.42 63.96 1167.02 61.03 1164.66 55.17 C 1161.91 49.23 1165.04 41.49 1171.21 39.24 Z"
       id="path83"
       style="fill:#949494;fill-opacity:1" />
    <path
       fill="#ffffff"
       opacity="1.00"
       d=" M 1004.53 49.66 C 1018.87 45.53 1035.29 53.68 1040.69 67.57 C 1046.61 81.20 1040.79 98.52 1027.76 105.71 C 1015.01 113.43 996.98 109.93 988.13 97.90 C 978.70 86.13 980.06 67.49 991.12 57.23 C 994.84 53.62 999.51 50.99 1004.53 49.66 Z"
       id="path85"
       style="fill:#949494;fill-opacity:1" />
    <path
       fill="#ffffff"
       opacity="1.00"
       d=" M 1150.47 81.77 C 1158.68 78.68 1168.68 82.57 1172.62 90.40 C 1175.75 96.31 1175.28 103.96 1171.33 109.38 C 1167.32 115.15 1159.76 118.09 1152.91 116.60 C 1144.76 115.07 1138.35 107.35 1138.47 99.04 C 1138.25 91.49 1143.34 84.22 1150.47 81.77 Z"
       id="path87"
       style="fill:#949494;fill-opacity:1" />
    <path
       fill="#ffffff"
       opacity="1.00"
       d=" M 440.75 120.63 C 449.17 120.62 457.58 120.62 466.00 120.62 C 466.00 142.31 466.00 163.99 466.00 185.67 C 471.28 177.62 480.17 172.82 489.11 169.93 C 501.26 166.29 514.92 167.69 525.88 174.15 C 539.82 182.17 549.47 196.77 552.31 212.51 C 554.98 227.50 552.93 243.69 544.75 256.73 C 536.76 270.05 522.66 280.10 506.96 281.36 C 491.53 282.70 474.93 276.47 465.78 263.64 C 465.71 268.84 465.77 274.05 465.74 279.25 C 457.41 279.24 449.08 279.26 440.75 279.25 C 440.75 226.37 440.75 173.50 440.75 120.63 M 491.08 192.20 C 478.92 194.41 469.29 204.90 466.83 216.83 C 464.03 229.14 468.01 243.05 477.95 251.10 C 486.99 258.77 500.74 260.03 511.12 254.37 C 530.81 244.05 533.26 213.53 516.85 199.17 C 510.00 192.90 500.14 190.39 491.08 192.20 Z"
       id="path89"
       style="fill:#949494;fill-opacity:1" />
    <path
       fill="#ffffff"
       opacity="1.00"
       d=" M 657.41 121.60 C 665.70 118.16 676.10 124.03 677.53 132.85 C 679.15 141.05 672.15 149.12 664.11 149.94 C 655.80 150.85 647.29 143.61 647.72 135.06 C 647.52 129.04 651.85 123.57 657.41 121.60 Z"
       id="path91"
       style="fill:#949494;fill-opacity:1" />
    <path
       fill="#ffffff"
       opacity="1.00"
       d=" M 782.00 120.62 C 790.42 120.62 798.83 120.62 807.25 120.63 C 807.25 173.50 807.25 226.37 807.25 279.25 C 798.87 279.25 790.50 279.25 782.13 279.25 C 782.12 274.04 782.12 268.83 782.12 263.62 C 776.85 271.78 767.94 276.77 758.87 279.60 C 746.36 283.30 732.27 281.74 721.16 274.81 C 706.84 266.20 697.31 250.58 695.16 234.12 C 693.27 219.87 695.57 204.74 703.37 192.49 C 711.36 179.32 725.38 169.44 740.93 168.16 C 753.24 166.95 765.81 170.96 775.50 178.55 C 778.07 180.54 780.12 183.09 782.00 185.73 C 782.00 164.03 782.00 142.33 782.00 120.62 M 745.13 192.19 C 737.16 193.69 729.98 198.70 725.67 205.55 C 716.78 219.39 718.80 239.74 731.44 250.66 C 739.57 257.87 751.74 259.81 761.82 255.90 C 767.69 253.64 772.76 249.45 776.21 244.20 C 785.37 230.73 783.47 210.67 771.36 199.58 C 764.47 193.06 754.40 190.34 745.13 192.19 Z"
       id="path93"
       style="fill:#949494;fill-opacity:1" />
    <path
       fill="#ffffff"
       opacity="1.00"
       d=" M 1126.61 142.71 C 1133.28 141.37 1140.48 142.98 1145.91 147.09 C 1152.68 152.06 1156.45 160.72 1155.52 169.06 C 1154.57 180.89 1143.86 190.86 1131.98 190.89 C 1123.94 191.21 1115.93 187.15 1111.37 180.54 C 1106.59 173.82 1105.64 164.59 1108.93 157.02 C 1111.99 149.73 1118.82 144.15 1126.61 142.71 Z"
       id="path95"
       style="fill:#949494;fill-opacity:1" />
    <path
       fill="#ffffff"
       opacity="1.00"
       d=" M 21.19 180.17 C 31.28 172.20 44.12 167.89 56.97 167.98 C 74.88 167.63 92.66 175.96 104.07 189.73 C 98.24 194.94 92.35 200.08 86.51 205.27 C 80.09 198.93 72.28 193.14 63.07 192.01 C 52.74 190.39 41.58 193.69 34.33 201.36 C 22.29 213.97 22.47 235.96 34.49 248.53 C 41.50 255.85 52.12 259.13 62.09 257.85 C 72.11 256.95 81.02 251.08 87.43 243.57 C 93.34 248.76 99.29 253.88 105.19 259.08 C 94.09 272.30 77.40 281.11 60.01 281.48 C 47.49 282.08 34.75 278.80 24.39 271.68 C 10.09 262.14 0.87 245.62 0.00 228.47 L 0.00 221.37 C 0.73 205.44 8.58 189.97 21.19 180.17 Z"
       id="path97"
       style="fill:#949494;fill-opacity:1" />
    <path
       fill="#ffffff"
       opacity="1.00"
       d=" M 159.61 168.81 C 173.66 166.52 188.67 168.82 200.85 176.40 C 213.68 184.11 222.90 197.37 225.98 211.99 C 229.02 226.50 226.92 242.29 219.01 254.97 C 211.04 268.24 197.10 277.57 181.94 280.43 C 167.82 283.07 152.63 281.09 140.22 273.66 C 127.47 266.33 118.03 253.67 114.39 239.45 C 111.07 226.00 112.29 211.26 118.62 198.86 C 126.41 183.01 142.22 171.60 159.61 168.81 M 164.14 192.16 C 155.87 193.60 148.22 198.53 143.64 205.60 C 134.11 219.91 136.94 241.59 151.03 251.94 C 164.00 261.84 184.60 259.60 194.64 246.57 C 204.90 233.43 204.26 212.61 192.44 200.64 C 185.16 193.35 174.20 190.29 164.14 192.16 Z"
       id="path99"
       style="fill:#949494;fill-opacity:1" />
    <path
       fill="#ffffff"
       opacity="1.00"
       d=" M 270.82 185.22 C 276.88 176.04 287.03 169.89 297.87 168.37 C 301.55 167.83 305.29 168.02 309.00 168.00 C 309.00 176.86 309.00 185.72 309.00 194.58 C 301.35 192.76 292.88 192.95 285.95 197.01 C 276.45 202.30 271.21 213.27 271.02 223.90 C 270.97 242.35 271.02 260.80 271.00 279.25 C 262.58 279.25 254.17 279.25 245.75 279.25 C 245.75 242.91 245.75 206.58 245.75 170.25 C 254.08 170.25 262.42 170.25 270.75 170.25 C 270.77 175.24 270.68 180.23 270.82 185.22 Z"
       id="path101"
       style="fill:#949494;fill-opacity:1" />
    <path
       fill="#ffffff"
       opacity="1.00"
       d=" M 358.54 168.78 C 373.36 166.34 389.37 169.29 401.55 178.34 C 412.59 186.31 419.86 199.02 421.70 212.46 C 422.58 219.23 422.54 226.16 421.22 232.87 C 393.65 232.88 366.08 232.86 338.51 232.89 C 339.95 241.58 345.41 249.49 353.10 253.81 C 361.40 258.71 371.61 259.56 380.90 257.49 C 388.63 255.66 395.54 251.28 401.44 246.06 C 406.48 251.37 411.48 256.71 416.51 262.04 C 396.25 284.59 358.34 288.25 334.18 269.89 C 323.01 261.52 315.28 248.75 312.98 234.99 C 310.70 221.44 312.94 206.96 320.23 195.21 C 328.46 181.50 342.72 171.42 358.54 168.78 M 348.67 196.69 C 343.18 201.22 339.96 207.87 338.08 214.61 C 357.51 214.63 376.95 214.63 396.39 214.61 C 394.59 205.42 389.18 196.56 380.51 192.47 C 370.28 187.74 357.30 189.38 348.67 196.69 Z"
       id="path103"
       style="fill:#949494;fill-opacity:1" />
    <path
       fill="#ffffff"
       opacity="1.00"
       d=" M 596.73 185.21 C 602.75 175.97 612.99 169.86 623.85 168.35 C 627.50 167.82 631.20 168.02 634.88 168.01 C 634.87 176.86 634.88 185.72 634.87 194.58 C 627.27 192.77 618.84 192.95 611.93 196.95 C 602.32 202.24 597.04 213.31 596.89 224.03 C 596.85 242.43 596.89 260.84 596.87 279.25 C 588.46 279.25 580.04 279.25 571.63 279.25 C 571.62 242.92 571.63 206.59 571.62 170.26 C 579.95 170.24 588.29 170.25 596.63 170.25 C 596.66 175.24 596.52 180.22 596.73 185.21 Z"
       id="path105"
       style="fill:#949494;fill-opacity:1" />
    <path
       fill="#ffffff"
       opacity="1.00"
       d=" M 866.09 168.72 C 879.76 166.13 894.30 170.13 905.11 178.78 C 907.55 180.67 909.46 183.12 911.24 185.63 C 911.26 180.50 911.24 175.38 911.25 170.25 C 919.67 170.26 928.08 170.24 936.50 170.26 C 936.50 204.48 936.50 238.70 936.51 272.92 C 936.62 282.00 935.95 291.30 932.66 299.85 C 926.77 314.82 913.59 326.45 898.30 331.19 C 885.89 335.00 872.37 335.05 859.87 331.58 C 847.04 327.82 835.44 320.18 826.44 310.33 C 832.43 304.74 838.37 299.10 844.30 293.43 C 852.25 301.59 862.51 308.10 874.03 309.38 C 882.46 310.17 891.48 308.54 898.34 303.33 C 904.88 298.47 909.00 290.85 910.47 282.92 C 911.73 276.64 911.08 270.22 911.27 263.88 C 905.86 272.13 896.69 277.06 887.45 279.82 C 874.61 283.40 860.24 281.41 849.12 273.96 C 835.28 265.00 826.21 249.43 824.36 233.13 C 822.78 219.75 824.88 205.66 831.81 193.98 C 839.04 181.31 851.57 171.33 866.09 168.72 M 872.45 192.65 C 867.95 193.83 863.76 196.14 860.32 199.27 C 844.75 213.13 846.23 241.58 863.94 253.04 C 873.60 259.49 887.14 259.50 896.78 252.99 C 903.73 248.43 908.58 240.97 910.41 232.91 C 913.28 220.39 909.23 206.14 898.95 198.09 C 891.66 192.14 881.48 190.23 872.45 192.65 Z"
       id="path107"
       style="fill:#949494;fill-opacity:1" />
    <path
       fill="#ffffff"
       opacity="1.00"
       d=" M 999.62 168.79 C 1012.80 166.65 1026.90 168.62 1038.46 175.53 C 1048.48 181.33 1056.24 190.80 1060.18 201.67 C 1063.78 211.60 1064.34 222.51 1062.41 232.86 C 1034.83 232.90 1007.25 232.85 979.67 232.88 C 981.09 241.07 985.94 248.62 993.01 253.04 C 1001.86 258.81 1013.18 259.77 1023.26 257.19 C 1030.53 255.19 1037.04 251.00 1042.65 246.04 C 1047.62 251.40 1052.66 256.69 1057.68 262.02 C 1037.25 284.85 998.69 288.31 974.59 269.31 C 963.29 260.54 955.70 247.17 953.85 232.99 C 952.36 221.32 953.99 209.09 959.50 198.61 C 967.37 183.25 982.52 171.67 999.62 168.79 M 989.24 197.23 C 984.10 201.73 981.08 208.12 979.26 214.60 C 998.69 214.64 1018.13 214.64 1037.57 214.60 C 1035.78 205.66 1030.67 197.00 1022.33 192.79 C 1011.79 187.53 998.02 189.33 989.24 197.23 Z"
       id="path109"
       style="fill:#949494;fill-opacity:1" />
    <path
       fill="#ffffff"
       opacity="1.00"
       d=" M 650.01 170.25 C 658.42 170.26 666.83 170.25 675.25 170.25 C 675.25 206.58 675.25 242.92 675.25 279.25 C 666.83 279.25 658.42 279.25 650.00 279.25 C 650.00 242.92 649.99 206.58 650.01 170.25 Z"
       id="path111"
       style="fill:#949494;fill-opacity:1" />
    <path
       fill="#ffffff"
       opacity="1.00"
       d=" M 55.12 316.06 C 60.02 314.38 66.09 318.64 65.39 323.98 C 65.09 330.27 56.41 333.18 52.01 328.92 C 47.44 325.31 49.51 317.31 55.12 316.06 Z"
       id="path113"
       style="fill:#949494;fill-opacity:1" />
    <path
       fill="#ffffff"
       opacity="1.00"
       d=" M 320.18 316.25 C 325.20 314.07 331.77 318.49 331.00 324.08 C 330.53 330.11 322.35 333.11 317.89 329.15 C 313.23 325.86 314.71 317.81 320.18 316.25 Z"
       id="path115"
       style="fill:#949494;fill-opacity:1" />
    <path
       fill="#ffffff"
       opacity="1.00"
       d=" M 20.41 321.51 C 25.88 315.48 35.18 315.56 42.37 318.02 C 42.39 322.06 42.35 326.10 42.40 330.15 C 39.11 328.56 34.52 327.82 31.72 330.74 C 29.37 333.42 30.29 337.25 30.13 340.50 C 33.92 340.49 37.71 340.49 41.50 340.50 C 41.50 344.62 41.50 348.74 41.51 352.87 C 37.71 352.88 33.92 352.87 30.13 352.88 C 30.12 365.37 30.13 377.87 30.12 390.37 C 25.50 390.38 20.88 390.37 16.26 390.38 C 16.24 377.88 16.26 365.38 16.25 352.88 C 13.29 352.87 10.33 352.87 7.37 352.87 C 7.38 348.74 7.37 344.62 7.38 340.49 C 10.34 340.50 13.30 340.50 16.26 340.49 C 16.15 334.03 15.72 326.64 20.41 321.51 Z"
       id="path117"
       style="fill:#949494;fill-opacity:1" />
    <path
       fill="#ffffff"
       opacity="1.00"
       d=" M 405.00 317.50 C 409.62 317.50 414.25 317.49 418.88 317.50 C 418.87 341.79 418.88 366.08 418.87 390.37 C 414.25 390.38 409.62 390.37 405.00 390.38 C 405.00 366.08 405.00 341.79 405.00 317.50 Z"
       id="path119"
       style="fill:#949494;fill-opacity:1" />
    <path
       fill="#ffffff"
       opacity="1.00"
       d=" M 90.71 347.25 C 96.31 338.54 109.21 336.58 117.47 342.54 C 122.97 346.49 125.41 353.49 125.38 360.07 C 125.38 370.17 125.38 380.27 125.37 390.37 C 120.75 390.38 116.13 390.37 111.50 390.38 C 111.45 380.60 111.57 370.82 111.45 361.04 C 111.35 356.56 107.64 352.57 103.14 352.30 C 96.99 351.41 91.19 356.75 91.16 362.87 C 91.07 372.04 91.16 381.21 91.12 390.37 C 86.50 390.38 81.88 390.37 77.26 390.38 C 77.24 373.63 77.26 356.88 77.25 340.13 C 81.75 340.12 86.25 340.12 90.75 340.13 C 90.75 342.50 90.75 344.87 90.71 347.25 Z"
       id="path121"
       style="fill:#949494;fill-opacity:1" />
    <path
       fill="#ffffff"
       opacity="1.00"
       d=" M 150.11 340.88 C 157.99 337.80 167.70 338.85 173.91 344.91 C 173.88 343.31 173.87 341.72 173.87 340.13 C 178.45 340.12 183.04 340.12 187.62 340.13 C 187.62 356.88 187.63 373.63 187.62 390.38 C 183.04 390.37 178.45 390.38 173.87 390.37 C 173.87 388.53 173.88 386.70 173.91 384.87 C 171.00 387.86 167.30 390.15 163.15 390.89 C 153.35 392.80 142.73 387.64 138.01 378.88 C 134.69 373.20 134.21 366.34 135.09 359.95 C 136.32 351.58 142.08 343.82 150.11 340.88 M 158.15 352.21 C 150.75 353.71 146.45 362.24 148.79 369.25 C 150.78 376.85 160.38 380.91 167.27 377.20 C 174.40 373.67 176.38 363.46 171.81 357.14 C 168.91 352.78 163.16 350.93 158.15 352.21 Z"
       id="path123"
       style="fill:#949494;fill-opacity:1" />
    <path
       fill="#ffffff"
       opacity="1.00"
       d=" M 214.20 347.21 C 219.87 338.44 233.02 336.54 241.23 342.76 C 246.52 346.71 248.82 353.52 248.86 359.94 C 248.90 370.08 248.86 380.23 248.87 390.37 C 244.25 390.38 239.63 390.37 235.00 390.38 C 234.98 380.89 235.03 371.41 234.98 361.92 C 234.97 358.84 233.67 355.66 231.06 353.89 C 226.55 350.82 219.73 352.20 216.70 356.72 C 214.97 359.11 214.46 362.13 214.50 365.03 C 214.50 373.48 214.51 381.93 214.50 390.38 C 209.91 390.37 205.33 390.38 200.75 390.37 C 200.75 373.63 200.75 356.88 200.75 340.13 C 205.25 340.12 209.75 340.12 214.25 340.13 C 214.25 342.48 214.26 344.85 214.20 347.21 Z"
       id="path125"
       style="fill:#949494;fill-opacity:1" />
    <path
       fill="#ffffff"
       opacity="1.00"
       d=" M 267.76 344.78 C 279.24 335.36 297.95 337.63 307.08 349.27 C 303.99 351.99 300.93 354.73 297.89 357.51 C 293.56 352.34 285.97 349.75 279.67 352.79 C 271.75 356.20 269.62 367.51 274.94 374.03 C 278.77 379.04 286.13 380.37 291.74 377.78 C 294.32 376.66 296.43 374.76 298.43 372.82 C 301.45 375.58 304.45 378.36 307.47 381.12 C 301.95 387.60 293.62 391.79 285.02 391.57 C 275.63 391.77 266.24 386.75 261.56 378.54 C 255.14 367.76 257.75 352.49 267.76 344.78 Z"
       id="path127"
       style="fill:#949494;fill-opacity:1" />
    <path
       fill="#ffffff"
       opacity="1.00"
       d=" M 349.54 343.65 C 358.00 337.62 370.83 337.44 378.53 344.89 C 378.50 343.30 378.49 341.71 378.49 340.13 C 383.07 340.12 387.66 340.12 392.25 340.13 C 392.25 356.88 392.25 373.62 392.25 390.37 C 387.66 390.38 383.08 390.38 378.50 390.37 C 378.49 388.53 378.50 386.70 378.52 384.87 C 370.87 393.49 356.72 392.96 348.33 385.72 C 335.75 375.47 336.27 353.13 349.54 343.65 M 361.44 352.61 C 355.92 354.42 352.33 360.30 352.87 366.03 C 352.92 373.99 361.28 380.21 368.94 378.27 C 377.04 376.67 381.11 366.69 377.74 359.48 C 375.31 353.22 367.60 350.22 361.44 352.61 Z"
       id="path129"
       style="fill:#949494;fill-opacity:1" />
    <path
       fill="#ffffff"
       opacity="1.00"
       d=" M 50.49 340.13 C 55.12 340.12 59.75 340.13 64.37 340.13 C 64.38 356.88 64.38 373.62 64.37 390.37 C 59.75 390.38 55.13 390.37 50.50 390.38 C 50.49 373.63 50.51 356.88 50.49 340.13 Z"
       id="path131"
       style="fill:#949494;fill-opacity:1" />
    <path
       fill="#ffffff"
       opacity="1.00"
       d=" M 316.13 340.13 C 320.75 340.12 325.37 340.13 330.00 340.12 C 330.00 356.87 330.00 373.62 330.00 390.38 C 325.37 390.37 320.75 390.38 316.13 390.37 C 316.12 373.62 316.12 356.88 316.13 340.13 Z"
       id="path133"
       style="fill:#949494;fill-opacity:1" />
  </g>
</svg>
