<?xml version="1.0" encoding="UTF-8" standalone="no"?>
<!-- Generator: Adobe Illustrator 19.2.1, SVG Export Plug-In . SVG Version: 6.00 Build 0)  -->

<svg
   xmlns:dc="http://purl.org/dc/elements/1.1/"
   xmlns:cc="http://creativecommons.org/ns#"
   xmlns:rdf="http://www.w3.org/1999/02/22-rdf-syntax-ns#"
   xmlns:svg="http://www.w3.org/2000/svg"
   xmlns="http://www.w3.org/2000/svg"
   xmlns:sodipodi="http://sodipodi.sourceforge.net/DTD/sodipodi-0.dtd"
   xmlns:inkscape="http://www.inkscape.org/namespaces/inkscape"
   version="1.1"
   id="layer"
   x="0px"
   y="0px"
   viewBox="0 0 630 348"
   xml:space="preserve"
   sodipodi:docname="symetra-financial-corporation-logo-vector.svg"
   width="630"
   height="348"
   inkscape:version="0.92.4 (5da689c313, 2019-01-14)"><metadata
   id="metadata1043"><rdf:RDF><cc:Work
       rdf:about=""><dc:format>image/svg+xml</dc:format><dc:type
         rdf:resource="http://purl.org/dc/dcmitype/StillImage" /><dc:title></dc:title></cc:Work></rdf:RDF></metadata><defs
   id="defs1041" /><sodipodi:namedview
   pagecolor="#ffffff"
   bordercolor="#666666"
   borderopacity="1"
   objecttolerance="10"
   gridtolerance="10"
   guidetolerance="10"
   inkscape:pageopacity="0"
   inkscape:pageshadow="2"
   inkscape:window-width="2516"
   inkscape:window-height="1255"
   id="namedview1039"
   showgrid="false"
   inkscape:zoom="1.4478528"
   inkscape:cx="510.30926"
   inkscape:cy="280.29369"
   inkscape:window-x="1293"
   inkscape:window-y="43"
   inkscape:window-maximized="0"
   inkscape:current-layer="layer" />
<style
   type="text/css"
   id="style966">
	.st0{fill:#0070B8;}
	.st1{fill:#808184;}
</style>
<g
   id="g970"
   style="fill:#949494;fill-opacity:1"
   transform="translate(-12.69796,-150.64771)">
	<path
   class="st0"
   d="m 197.6,188.8 c 0,0 131.1,-33 178.8,-33.4 51.4,-0.4 71.7,7.2 81.5,29.8 7.7,17.8 -9,33.7 -9,33.7 0,0 30.1,7.4 46.5,20.2 11.6,9 12.3,19.8 12.3,19.8 0,0 8.5,7.1 9.7,9.4 0.1,0.2 -16.7,-2.5 -22.8,-3.6 -89.3,-15.2 -224.5,-15.1 -319.2,85.7 -6,6.4 -0.5,-5.8 25.5,-39.7 69.3,-90.2 181.8,-94.3 181.8,-94.3 0,0 -4.7,-17.1 -55.1,-23.5 -31,-3.8 -130,-4.1 -130,-4.1"
   id="path968"
   style="fill:#949494;fill-opacity:1"
   inkscape:connector-curvature="0" />
</g>
<path
   class="st1"
   d="m 7.2020401,342.05229 h -3.9 v -25.5 h 5.8 c 2.6999999,0 4.7999999,0.2 6.2999999,1.4 1.5,1.2 2.5,3.2 2.5,5.6 0,4.1 -2,6.4 -5.9,6.9 l 8.8,11.6 h -4.7 l -8.4999999,-11.4 h -0.5 m 1.1,-3.2 c 3.5999999,0 5.4999999,-0.4 5.4999999,-3.5 0,-3.2 -1.7,-3.8 -5.4999999,-3.8 h -0.8 v 7.3 z"
   id="path972"
   style="fill:#949494;fill-opacity:1"
   inkscape:connector-curvature="0" />
<polyline
   class="st1"
   points="41.9,467.2 56.1,467.2 56.1,470.7 46,470.7 46,477.1 56.1,477.1 56.1,480.8 46,480.8 46,489 56.1,489   56.1,492.7 41.9,492.7 "
   id="polyline974"
   style="fill:#949494;fill-opacity:1"
   transform="translate(-12.69796,-150.64771)" />
<polyline
   class="st1"
   points="75.9,492.7 71.7,492.7 71.7,470.7 65,470.7 65,467.2 82.6,467.2 82.6,470.7 75.9,470.7 "
   id="polyline976"
   style="fill:#949494;fill-opacity:1"
   transform="translate(-12.69796,-150.64771)" />
<rect
   x="80.102043"
   y="316.55231"
   class="st1"
   width="4.0999999"
   height="25.5"
   id="rect978"
   style="fill:#949494;fill-opacity:1" />
<path
   class="st1"
   d="m 101.40204,342.05229 h -3.9 v -25.5 h 5.8 c 2.7,0 4.8,0.2 6.4,1.4 1.5,1.2 2.5,3.2 2.5,5.6 0,4.1 -2,6.4 -5.8,6.9 l 8.8,11.6 h -4.9 l -8.5,-11.4 h -0.5 m 1.1,-3.2 c 3.6,0 5.5,-0.4 5.5,-3.5 0,-3.2 -1.7,-3.8 -5.5,-3.8 h -0.8 v 7.3 z"
   id="path980"
   style="fill:#949494;fill-opacity:1"
   inkscape:connector-curvature="0" />
<polyline
   class="st1"
   points="136.4,467.2 150.6,467.2 150.6,470.7 140.5,470.7 140.5,477.1 150.6,477.1 150.6,480.8 140.5,480.8   140.5,489 150.6,489 150.6,492.7 136.4,492.7 "
   id="polyline982"
   style="fill:#949494;fill-opacity:1"
   transform="translate(-12.69796,-150.64771)" />
<path
   class="st1"
   d="m 170.30204,325.95229 c -0.2,1.2 -0.6,2.4 -1.2,3.5 l -6.7,13.6 -6.7,-13.9 c -0.5,-1 -0.9,-2.1 -1.3,-3.2 0,1.2 -0.2,2.4 -0.5,3.5 l -2.7,12.6 h -3.8 l 6,-26.5 7.5,16 c 0.2,0.5 0.7,1.6 1.4,3.5 0.5,-1.4 1.1,-2.6 1.5,-3.5 l 7.3,-16 6.2,26.5 h -3.9 l -2.8,-12.6 c 0.1,-0.4 0,-1.6 -0.3,-3.5"
   id="path984"
   style="fill:#949494;fill-opacity:1"
   inkscape:connector-curvature="0" />
<polyline
   class="st1"
   points="199.3,467.2 213.6,467.2 213.6,470.7 203.5,470.7 203.5,477.1 213.6,477.1 213.6,480.8 203.5,480.8   203.5,489 213.6,489 213.6,492.7 199.3,492.7 "
   id="polyline986"
   style="fill:#949494;fill-opacity:1"
   transform="translate(-12.69796,-150.64771)" />
<path
   class="st1"
   d="m 212.90204,315.55229 16.2,15.6 c 1,1 1.9,2 2.8,3.1 v -17.7 h 3.8 v 26.5 l -16.5,-15.9 c -0.9,-0.9 -1.7,-1.8 -2.5,-2.8 v 17.7 h -3.8"
   id="path988"
   style="fill:#949494;fill-opacity:1"
   inkscape:connector-curvature="0" />
<polyline
   class="st1"
   points="269.1,492.7 264.9,492.7 264.9,470.7 258.2,470.7 258.2,467.2 275.8,467.2 275.8,470.7 269.1,470.7   "
   id="polyline990"
   style="fill:#949494;fill-opacity:1"
   transform="translate(-12.69796,-150.64771)" />
<rect
   x="283.40204"
   y="311.55231"
   class="st1"
   width="2.2"
   height="35.700001"
   id="rect992"
   style="fill:#949494;fill-opacity:1" />
<path
   class="st1"
   d="m 309.70204,316.55229 h 6.4 c 2.7,0 4.7,0.1 6.3,1.3 1.6,1.1 2.5,3.1 2.5,5.4 0,2.7 -1.3,4.6 -3.7,5.3 3,0.5 4.8,2.9 4.8,6.3 0,2.1 -0.8,4 -2.1,5.3 -1.8,1.8 -4.2,1.9 -7.8,1.9 h -6.5 m 5.8,-14.7 c 3.7,0 5.4,-0.9 5.4,-3.5 0,-3.2 -1.7,-3.8 -5.4,-3.8 h -1.6 v 7.3 z m -0.2,11.3 c 2.3,0 4,-0.1 5,-0.8 1,-0.7 1.6,-1.9 1.6,-3.3 0,-1.6 -0.7,-2.9 -2,-3.5 -1,-0.5 -2.1,-0.6 -3.4,-0.6 h -2.7 v 8.1 h 1.5 z"
   id="path994"
   style="fill:#949494;fill-opacity:1"
   inkscape:connector-curvature="0" />
<polyline
   class="st1"
   points="349.6,467.2 363.8,467.2 363.8,470.7 353.7,470.7 353.7,477.1 363.8,477.1 363.8,480.8 353.7,480.8   353.7,489 363.8,489 363.8,492.7 349.6,492.7 "
   id="polyline996"
   style="fill:#949494;fill-opacity:1"
   transform="translate(-12.69796,-150.64771)" />
<path
   class="st1"
   d="m 362.60204,315.55229 16.2,15.6 c 1,1 1.9,2 2.8,3.1 v -17.7 h 3.8 v 26.5 l -16.5,-15.9 c -0.9,-0.9 -1.8,-1.8 -2.5,-2.8 v 17.7 h -3.8"
   id="path998"
   style="fill:#949494;fill-opacity:1"
   inkscape:connector-curvature="0" />
<polyline
   class="st1"
   points="410.7,467.2 425,467.2 425,470.7 414.9,470.7 414.9,477.1 425,477.1 425,480.8 414.9,480.8 414.9,489   425,489 425,492.7 410.7,492.7 "
   id="polyline1000"
   style="fill:#949494;fill-opacity:1"
   transform="translate(-12.69796,-150.64771)" />
<polyline
   class="st1"
   points="437.2,467.2 451.4,467.2 451.4,470.7 441.3,470.7 441.3,477.1 451.4,477.1 451.4,480.7 441.3,480.7   441.3,492.7 437.2,492.7 "
   id="polyline1002"
   style="fill:#949494;fill-opacity:1"
   transform="translate(-12.69796,-150.64771)" />
<rect
   x="449.30203"
   y="316.55231"
   class="st1"
   width="4.0999999"
   height="25.5"
   id="rect1004"
   style="fill:#949494;fill-opacity:1" />
<polyline
   class="st1"
   points="486.4,492.7 482.3,492.7 482.3,470.7 475.5,470.7 475.5,467.2 493.2,467.2 493.2,470.7 486.4,470.7   "
   id="polyline1006"
   style="fill:#949494;fill-opacity:1"
   transform="translate(-12.69796,-150.64771)" />
<path
   class="st1"
   d="m 490.60204,335.45229 c 0.6,2.3 2.3,3.5 4.9,3.5 2.5,0 4,-1.5 4,-3.8 0,-2.5 -1.9,-3.1 -4.5,-4.4 -4.5,-2.2 -7,-3.9 -7,-7.8 0,-4.1 3,-7 7.7,-7 3.8,0 6.4,1.5 7.3,4.2 l -3.2,1.7 c -1,-1.6 -2.2,-2.3 -3.8,-2.3 -2.2,0 -3.6,1.3 -3.6,3.2 0,2.5 2,3.2 4.9,4.5 4.5,2.1 6.6,3.9 6.6,7.6 0,4.7 -3.2,7.9 -8.4,7.9 -4.4,0 -7.2,-2.1 -8.1,-5.8"
   id="path1008"
   style="fill:#949494;fill-opacity:1"
   inkscape:connector-curvature="0" />
<rect
   x="524.40204"
   y="311.55231"
   class="st1"
   width="2.2"
   height="35.700001"
   id="rect1010"
   style="fill:#949494;fill-opacity:1" />
<polyline
   class="st1"
   points="564,467.2 568.1,467.2 568.1,489 577.4,489 577.4,492.7 564,492.7 "
   id="polyline1012"
   style="fill:#949494;fill-opacity:1"
   transform="translate(-12.69796,-150.64771)" />
<rect
   x="574.00208"
   y="316.55231"
   class="st1"
   width="4.0999999"
   height="25.5"
   id="rect1014"
   style="fill:#949494;fill-opacity:1" />
<polyline
   class="st1"
   points="602.8,467.2 617,467.2 617,470.7 606.9,470.7 606.9,477.1 617,477.1 617,480.7 606.9,480.7   606.9,492.7 602.8,492.7 "
   id="polyline1016"
   style="fill:#949494;fill-opacity:1"
   transform="translate(-12.69796,-150.64771)" />
<g
   id="g1020"
   style="fill:#949494;fill-opacity:1"
   transform="translate(-12.69796,-150.64771)">
	<polyline
   class="st1"
   points="625.1,467.2 639.3,467.2 639.3,470.7 629.2,470.7 629.2,477.1 639.3,477.1 639.3,480.8 629.2,480.8    629.2,489 639.3,489 639.3,492.7 625.1,492.7  "
   id="polyline1018"
   style="fill:#949494;fill-opacity:1" />
</g>
<path
   d="m 13.70204,254.45229 c 2,7.4 7.5,11.3 15.9,11.3 8.1,0 13,-4.9 13,-12.2 0,-8.1 -6.1,-10 -14.7,-14.2 -14.5,-7.2 -22.5999999,-12.7 -22.5999999,-25.2 0,-13.3 9.7999999,-22.6 24.7999999,-22.6 12.2,0 20.7,5 23.8,13.6 l -10.5,5.4 c -3.2,-5.1 -7,-7.5 -12.2,-7.5 -7.3,0 -11.8,4.2 -11.8,10.4 0,8 6.5,10.4 15.7,14.7 14.6,6.7 21.4,12.6 21.4,24.5 0,15.4 -10.3,25.5 -27.4,25.5 -14.1,0 -23.2999999,-6.7 -26.0999999,-18.7"
   id="path1022"
   style="fill:#949494;fill-opacity:1"
   inkscape:connector-curvature="0" />
<path
   d="m 107.90204,238.15229 -27.8,-44.8 h 14.1 l 17.3,28.1 c 0.4,0.6 1.6,2.8 3.5,6.6 1,-2.7 2.2,-5 3.5,-6.9 l 17.8,-27.7 h 13.4 l -28.4,44.8 v 37.8 h -13.3"
   id="path1024"
   style="fill:#949494;fill-opacity:1"
   inkscape:connector-curvature="0" />
<path
   d="m 242.30204,223.85229 c -0.7,3.9 -2,7.6 -3.8,11.4 l -21.6,44 -21.6,-44.9 c -1.6,-3.3 -3,-6.8 -4,-10.5 -0.1,3.9 -0.7,7.7 -1.5,11.4 l -8.9,40.6 h -12.4 l 19.5,-85.8 24.4,51.8 c 0.7,1.5 2.2,5.2 4.5,11.2 1.6,-4.6 3.5,-8.3 4.7,-11.2 l 23.8,-51.8 20,85.8 h -12.5 l -9.1,-40.7 c -0.3,-1.5 -0.7,-5.2 -1.5,-11.3"
   id="path1026"
   style="fill:#949494;fill-opacity:1"
   inkscape:connector-curvature="0" />
<polyline
   points="316,344 362,344 362,355.4 329.4,355.4 329.4,376.1 362,376.1 362,387.9 329.4,387.9 329.4,414.5 362,414.5   362,426.6 316,426.6 "
   id="polyline1028"
   style="fill:#949494;fill-opacity:1"
   transform="translate(-12.69796,-150.64771)" />
<polyline
   points="432.3,426.6 418.9,426.6 418.9,355.4 397,355.4 397,344 454.2,344 454.2,355.4 432.3,355.4 "
   id="polyline1030"
   style="fill:#949494;fill-opacity:1"
   transform="translate(-12.69796,-150.64771)" />
<path
   d="m 484.50204,275.95229 h -12.6 v -82.6 h 18.7 c 8.9,0 15.5,0.7 20.5,4.6 5,3.9 8,10.4 8,18.1 0,13.3 -6.5,20.8 -18.9,22.3 l 28.4,37.5 h -15.1 l -27.5,-36.9 h -1.5 m 3.2,-10.4 c 11.8,0 17.7,-1.4 17.7,-11.3 0,-10.2 -5.7,-12.4 -17.7,-12.4 h -2.4 v 23.7 z"
   id="path1032"
   style="fill:#949494;fill-opacity:1"
   inkscape:connector-curvature="0" />
<path
   d="m 603.10204,254.65229 h -32.7 l -9.6,21.2 h -14.1 l 39.9,-85.8 39.9,85.8 h -14.2 m -14,-32.4 -8.4,-18.8 c -0.9,-2.2 -2,-5.2 -3.1,-9.4 -1,4.2 -2.1,7.2 -3,9.4 l -8.4,18.8 z"
   id="path1034"
   style="fill:#949494;fill-opacity:1"
   inkscape:connector-curvature="0" />
<path
   d="m 623.90204,194.25229 c 1.7,1.7 2.7,4.1 2.7,6.6 0,2.5 -0.9,4.8 -2.7,6.5 -1.8,1.8 -4.2,2.8 -6.6,2.8 -2.5,0 -4.8,-1 -6.6,-2.8 -1.8,-1.8 -2.7,-4.1 -2.7,-6.5 0,-2.5 1,-4.8 2.8,-6.6 1.7,-1.7 4,-2.7 6.5,-2.7 2.5,0 4.8,0.9 6.6,2.7 m -0.7,0.8 c -1.6,-1.6 -3.6,-2.4 -5.9,-2.4 -2.2,0 -4.2,0.8 -5.7,2.3 -1.6,1.6 -2.5,3.7 -2.5,5.9 0,2.1 0.8,4.2 2.4,5.8 1.5,1.6 3.6,2.4 5.7,2.4 2.2,0 4.2,-0.8 5.8,-2.4 1.5,-1.5 2.4,-3.5 2.4,-5.7 0.1,-2.3 -0.7,-4.4 -2.2,-5.9 m -1.2,3.2 c 0,1.5 -0.9,2.6 -2.5,2.8 l 2.4,4.9 h -2 l -2.2,-4.6 h -2.3 v 4.6 h -1.8 v -10.6 h 3.9 c 3,0 4.5,0.9 4.5,2.9 m -6.6,-1.7 v 3.7 h 1.9 c 2,0 2.9,-0.4 2.9,-1.8 0,-1.4 -0.9,-1.9 -2.9,-1.9 z"
   id="path1036"
   style="fill:#949494;fill-opacity:1"
   inkscape:connector-curvature="0" />
</svg>