<svg width="85" height="62" viewBox="0 0 85 62" fill="none" xmlns="http://www.w3.org/2000/svg">
<path fill-rule="evenodd" clip-rule="evenodd" d="M54.9051 3.26626C54.8435 3.30148 54.8157 3.37491 54.8375 3.4416C54.8592 3.50829 54.9254 3.55176 54.9953 3.54351C55.011 3.54201 56.5831 3.38091 59.1644 3.85749C69.2851 5.73383 74.8903 12.5123 74.9459 12.5798C74.9835 12.6255 75.0428 12.645 75.1 12.63C75.1571 12.6158 75.1999 12.5693 75.2097 12.5116C75.2127 12.4899 75.6042 10.322 77.6241 8.31081C79.6253 6.31607 81.646 5.70386 81.6663 5.69787C81.7211 5.68138 81.7617 5.63567 81.7715 5.57947C81.7805 5.52402 81.7572 5.46707 81.7113 5.4341C81.643 5.38539 74.8392 0.58438 67.1344 0.512444C59.9316 0.442755 54.9547 3.23778 54.9051 3.26626Z" fill="#949494"/>
<path fill-rule="evenodd" clip-rule="evenodd" d="M54.5234 3.702C54.4738 3.70799 54.431 3.73722 54.4084 3.78143C54.3852 3.82564 54.3859 3.87809 54.4092 3.92155L58.4618 11.3355C59.1555 12.6064 63.6327 20.075 63.6778 20.1507C63.7071 20.1994 63.7619 20.2272 63.819 20.2227C63.8754 20.2175 63.925 20.1807 63.946 20.1275C63.9475 20.123 64.1309 19.6652 64.9252 18.7255C68.9207 14.0032 74.2343 14.2489 74.2877 14.2519C74.3441 14.2549 74.3982 14.2257 74.426 14.1755C74.4538 14.126 74.4515 14.0646 74.4185 14.0174C74.3884 13.9739 71.3044 9.60304 66.0817 6.80576C59.3433 3.18495 54.5708 3.696 54.5234 3.702Z" fill="#949494"/>
<path fill-rule="evenodd" clip-rule="evenodd" d="M53.9652 4.04699C53.9457 4.07022 53.4911 4.62399 53.1048 5.32237C47.5613 15.38 51.1608 25.2668 51.1976 25.3657C51.2186 25.4204 51.269 25.4578 51.3276 25.4616C51.3862 25.4661 51.4418 25.4354 51.4696 25.3844C51.4719 25.3792 51.7664 24.8479 52.6509 24.0686C56.7757 20.4283 62.3313 20.9656 62.3861 20.9716C62.441 20.9776 62.4944 20.9528 62.5252 20.9079C62.556 20.8622 62.5605 20.8045 62.535 20.755L58.4147 12.7461C57.6918 11.3381 54.2501 4.14966 54.2155 4.07773C54.1937 4.03202 54.1494 3.9998 54.099 3.9938C54.0479 3.98781 53.9975 4.00803 53.9652 4.04699Z" fill="#949494"/>
<path fill-rule="evenodd" clip-rule="evenodd" d="M53.4478 3.96524C53.3907 3.99522 47.6765 7.01955 43.705 13.7913C39.4615 21.0292 40.3648 27.0636 40.3745 27.1235C40.3835 27.1782 40.4211 27.2225 40.4722 27.2412C40.5233 27.2592 40.5812 27.2479 40.6218 27.212C40.6436 27.1925 42.8671 25.2592 46.7094 25.2712C48.9337 25.2749 49.7378 25.7253 49.7453 25.7298C49.7994 25.7605 49.8678 25.7553 49.9159 25.7155C49.9512 25.6863 49.9707 25.6443 49.9707 25.6001C49.9707 25.5844 49.9677 25.5679 49.9624 25.5522C49.9452 25.5005 49.0141 22.7294 49.0141 18.668C49.0141 15.1424 49.7152 10.6441 52.3236 6.10834C52.9217 5.0795 53.6266 4.19902 53.6334 4.19078C53.6551 4.16306 53.6664 4.13009 53.6664 4.09711C53.6664 4.06339 53.6552 4.03042 53.6326 4.0027C53.5875 3.948 53.5109 3.93227 53.4478 3.96524Z" fill="#949494"/>
<path fill-rule="evenodd" clip-rule="evenodd" d="M60.316 42.6663C59.5976 43.2298 58.5343 43.5146 57.6709 43.5146C55.7869 43.5146 54.166 42.0766 54.166 39.8998C54.166 38.796 54.5989 38.0856 55.3368 37.5019C56.5895 39.355 58.499 41.1047 60.5745 42.4588C60.4926 42.5344 60.4047 42.5996 60.316 42.6663ZM57.3921 31.0651C58.499 31.0651 58.8762 31.9425 58.8762 32.9294C58.8762 34.225 57.8069 34.9084 56.7481 35.3858C56.2145 34.4476 55.9027 33.5446 55.9027 32.7226C55.9027 31.8946 56.5113 31.0651 57.3921 31.0651ZM67.7751 44.446C66.4525 44.0504 64.5941 42.9825 62.7222 41.5993C63.0822 41.0125 63.4053 40.3771 63.6751 39.7214C64.2657 38.2782 64.5385 37.5476 65.8799 37.4112V36.7915C65.1517 36.826 64.3942 36.838 63.6285 36.838C62.8988 36.838 62.1624 36.826 61.4237 36.7915V37.4112C61.9241 37.5274 62.4532 37.5723 62.9491 37.7199C62.9491 38.2954 62.6268 39.3078 62.3442 39.9904C62.1939 40.3194 62.0293 40.6304 61.852 40.9249C60.1364 39.5521 58.496 37.9402 57.3755 36.3569C58.9897 35.5993 60.8751 34.6836 60.8751 32.7428C60.8751 30.8882 59.5322 29.9268 57.6536 29.9268C55.5961 29.9268 53.8745 31.4285 53.8745 33.3633C53.8745 34.3359 54.1608 35.334 54.6447 36.3142C52.7848 37.2486 51.5321 38.3891 51.5321 40.5225C51.5321 43.6307 54.048 45.1474 56.851 45.1474C58.8762 45.1474 60.4099 44.3426 61.5965 43.0852C63.7096 44.3111 65.9009 45.1077 67.6638 45.1796L67.7751 44.446Z" fill="#949494"/>
<path fill-rule="evenodd" clip-rule="evenodd" d="M59.9825 54.8814C59.824 54.2865 59.5324 53.6023 58.8095 53.6023C58.2639 53.6023 57.6184 54.0654 57.2021 54.4176V59.4629C57.2021 61.0987 57.9122 60.8716 59.2265 61.0118V61.654C58.0708 61.654 56.891 61.6068 55.7435 61.6068C54.8793 61.6068 54.0242 61.6068 53.1547 61.654V61.0118L54.5344 60.7892V54.6896C54.5344 53.9702 54.4743 53.3745 53.5552 53.3745C53.3749 53.3745 53.2066 53.3745 53.0292 53.3925V52.7683C53.701 52.6072 54.3758 52.4318 55.0476 52.2595C55.5038 52.1239 56.1087 51.9043 56.5461 51.9043C57.2179 51.9043 57.2021 52.7683 57.2021 53.2501V53.4757C57.8446 52.7683 58.8553 51.8594 59.8848 51.8594C60.8174 51.8594 61.5546 52.3711 61.5546 53.3633C61.5546 54.1771 60.7851 54.8672 59.9825 54.8814Z" fill="#949494"/>
<path fill-rule="evenodd" clip-rule="evenodd" d="M40.689 61.6065C39.7798 61.6065 38.8645 61.6065 37.9612 61.6544V61.0122L39.2958 60.7897V55.9857C39.2958 54.9149 39.268 53.5533 37.8199 53.5533C37.0948 53.5533 36.0029 53.9227 35.3784 54.2862V59.7961C35.3784 60.8256 35.7474 60.9178 36.6957 61.0122V61.6544C35.7654 61.6544 34.8321 61.6065 33.9198 61.6065C33.0466 61.6065 32.184 61.6065 31.3153 61.6544V61.0122L32.6972 60.7897V54.8017C32.6972 54.0366 32.6844 53.375 31.7301 53.375C31.5535 53.375 31.3791 53.375 31.2048 53.3922V52.7687C31.8774 52.6069 32.5499 52.4323 33.2247 52.2599C33.8364 52.0958 34.3534 51.904 34.7171 51.904C35.4949 51.904 35.3784 52.9119 35.3784 53.4237C36.435 52.7845 38.1558 51.904 39.4018 51.904C40.2126 51.904 40.8183 52.0779 41.3533 52.7051C41.9981 53.4409 41.9575 54.6571 41.9575 55.5893V59.7473C41.9575 61.0752 42.6556 60.8526 43.6648 61.0122V61.6544C42.6857 61.6544 41.6862 61.6065 40.689 61.6065Z" fill="#949494"/>
<path fill-rule="evenodd" clip-rule="evenodd" d="M12.2196 44.7495H-3.8147e-06V44.1073L2.2619 43.7102V32.5787C2.2619 31.2524 1.86588 30.9167 0.172833 30.8702V30.2288H7.40042V30.8702L5.31435 31.2194V42.3801C5.31435 43.615 5.60066 43.7544 7.40042 43.7544C10.244 43.7544 11.2066 43.5003 11.8844 40.6439H12.593L12.2196 44.7495Z" fill="#949494"/>
<path fill-rule="evenodd" clip-rule="evenodd" d="M21.1548 55.4156C20.1598 55.4156 19.7616 55.6832 19.7616 56.7255V60.8528C18.2631 61.4755 16.4506 61.9401 14.2548 61.9401C9.83847 61.9401 6.90325 58.8701 6.90325 54.5801C6.90325 50.3674 10.2525 46.9414 14.605 46.9414C16.7241 46.9414 18.4262 47.4539 19.6766 47.8983L19.6481 51.5708H19.0191C18.8117 50.4475 18.4262 49.5019 17.7071 48.8477C17.0157 48.2392 16.1004 47.8945 14.9928 47.8945C11.2422 47.8945 10.351 52.222 10.351 54.7053C10.351 57.2538 11.2632 60.9952 14.5734 60.9952C16.3747 60.9952 16.8677 60.4332 16.8677 58.5584V55.6832L15.0852 55.4156V54.7053H21.4448V55.4156H21.1548Z" fill="#949494"/>
<path fill-rule="evenodd" clip-rule="evenodd" d="M66.6004 56.8518C65.1718 56.8518 63.1068 57.1073 63.1068 59.0774C63.1068 60.0717 63.5592 60.6967 64.6045 60.6967C65.4491 60.6967 66.1044 60.0867 66.3794 59.4138C66.5726 58.9005 66.6004 58.4846 66.6004 57.9241V56.8518ZM68.7698 61.7795C67.7576 61.7795 67.0723 61.5854 66.7003 60.5521C66.0112 61.5854 64.6691 61.8769 63.6749 61.8769C61.8767 61.8769 60.2084 61.1103 60.2084 59.1291C60.2084 55.9571 64.3339 55.9249 66.6004 55.9249V54.705C66.6004 53.5188 66.042 53.0564 64.7848 53.0564C63.965 53.0564 63.07 53.3134 62.3095 53.5847V52.4C63.3661 52.0958 64.4121 51.8897 65.7031 51.8897C66.6177 51.8897 67.8861 52.0778 68.573 52.738C69.3116 53.4408 69.2838 54.3221 69.2838 55.2842V59.6394C69.2838 60.4044 69.5138 61.0122 70.2825 61.0122C70.9543 61.0122 71.6607 60.9492 72.3153 60.8885V49.9002C72.3153 49.1194 72.3047 48.4592 71.3556 48.4592C71.1836 48.4592 71.0092 48.475 70.8243 48.4922V47.868C71.4992 47.7136 72.1725 47.5338 72.8526 47.3607C73.4612 47.1981 73.9798 47.0033 74.342 47.0033C75.116 47.0033 74.9995 47.9804 74.9995 48.5274V59.796C74.9995 60.8376 75.6082 60.8885 77.2118 61.0121V61.6543C74.3855 61.6543 71.5961 61.7795 68.7698 61.7795Z" fill="#949494"/>
<path fill-rule="evenodd" clip-rule="evenodd" d="M38.6066 39.9486C37.1601 39.9486 35.0928 40.2004 35.0928 42.1719C35.0928 43.1618 35.5437 43.8047 36.5807 43.8047C37.4486 43.8047 38.1122 43.1805 38.3662 42.5106C38.5563 42.0123 38.6066 41.5777 38.6066 41.0187V39.9486ZM40.7769 44.8755C39.7444 44.8755 39.0695 44.6844 38.6991 43.6444C38.0085 44.6844 36.6649 44.9894 35.6571 44.9894C33.8694 44.9894 32.1876 44.2191 32.1876 42.2349C32.1876 39.0629 36.3214 39.0172 38.6066 39.0172V37.7995C38.6066 36.6141 38.0325 36.1675 36.7761 36.1675C35.954 36.1675 35.0432 36.4192 34.3023 36.6793V35.4961C35.3648 35.2068 36.3898 34.994 37.7124 34.994C38.6066 34.994 39.8917 35.1723 40.5838 35.8303C41.3059 36.5354 41.2691 37.4301 41.2691 38.393V42.7324C41.2691 43.5005 41.5005 44.1254 42.2836 44.1254C42.9449 44.1254 43.6497 44.0602 44.3245 43.9801V32.9955C44.3245 32.2102 44.3065 31.5575 43.3529 31.5575C43.1808 31.5575 43.0057 31.592 42.8306 31.6047V30.9618C43.5039 30.8037 44.1788 30.6269 44.8378 30.4508C45.4457 30.2919 45.9575 30.0971 46.349 30.0971C47.102 30.0971 46.9983 31.0914 46.9983 31.6182V42.889C46.9983 43.9344 47.5972 43.9801 49.2173 44.1254V44.7496C46.3768 44.7496 43.5986 44.8755 40.7769 44.8755Z" fill="#949494"/>
<path fill-rule="evenodd" clip-rule="evenodd" d="M48.407 52.8372C46.8861 52.8372 46.3059 54.5944 46.2413 55.8601L48.8263 55.6031C49.5042 55.5364 49.9167 55.4442 49.9167 54.6574C49.9167 53.7597 49.3884 52.8372 48.407 52.8372ZM52.6904 56.6416L46.2082 56.7398C46.2631 59.1115 47.2693 60.6671 49.8213 60.6671C50.5141 60.6671 51.3377 60.5202 51.9314 60.3284V61.1616C50.8185 61.654 49.8739 61.8638 48.6152 61.8638C45.6026 61.8638 43.273 59.8968 43.273 56.817C43.273 53.7777 45.5515 51.9043 48.5062 51.9043C50.8651 51.9043 52.7295 53.5191 52.7295 55.9253C52.7295 56.1486 52.7159 56.4063 52.6904 56.6416Z" fill="#949494"/>
<path fill-rule="evenodd" clip-rule="evenodd" d="M28.2657 45.1968C27.4301 45.1968 27.0273 45.2793 26.1947 45.2793C25.6454 45.2793 25.1396 45.2283 24.7361 45.1017C24.4626 45.3115 24.189 45.8061 24.189 46.1425C24.189 47.4688 25.4763 47.9664 27.3414 47.9664C29.4373 47.9664 30.6915 47.2935 30.6915 46.2849C30.6915 45.1676 29.1675 45.1968 28.2657 45.1968ZM27.5466 36.0032C26.3908 36.0032 25.8941 36.9324 25.8941 38.1658C25.8941 39.5955 26.2616 41.0013 27.6894 41.0013C28.8489 41.0013 29.3103 40.1058 29.3103 38.8559C29.3103 37.5274 28.9436 36.0032 27.5466 36.0032ZM33.0879 35.9253C32.6363 35.5896 32.135 35.3191 31.5767 35.3191C31.1439 35.3191 30.9297 35.7649 30.7877 36.1014C31.4151 36.6139 31.8021 37.5274 31.8021 38.3262C31.8021 40.6439 29.9069 41.9957 27.7059 41.9957C27.2468 41.9957 26.7959 41.9799 26.3427 41.8668C26.1015 42.1718 25.7333 42.4588 25.3651 42.6026C25.3951 43.0717 25.9264 43.0972 26.2781 43.0972C27.0469 43.0972 27.8058 43.0372 28.5573 43.0372C30.2443 43.0372 32.135 43.5513 32.135 45.564C32.135 48.4003 29.2644 49.582 26.8267 49.582C25.1239 49.582 22.4396 48.8116 22.4396 46.706C22.4396 45.7424 23.2114 45.1017 24.0132 44.733C23.3527 44.3366 23.1475 43.5798 23.1475 42.8447C23.1475 42.7135 23.1625 42.5906 23.1813 42.4588C23.8389 42.3801 25.0758 42.0609 25.4958 41.5468C24.171 41.0335 23.418 40.0092 23.418 38.5854C23.418 36.1673 25.5071 34.9938 27.7059 34.9938C28.528 34.9938 29.5027 35.1902 30.1925 35.6525C30.4518 34.6492 31.2393 33.9418 32.3019 33.9418C32.7324 33.9418 33.6462 34.0714 33.6462 34.6611C33.6462 35.1407 33.3855 35.5746 33.0879 35.9253Z" fill="#949494"/>
<path fill-rule="evenodd" clip-rule="evenodd" d="M18.221 36.003C16.7135 36.003 16.1154 37.7834 16.0515 39.0311L18.6426 38.7928C19.3136 38.7283 19.7359 38.6129 19.7359 37.8471C19.7359 36.9494 19.2054 36.003 18.221 36.003ZM22.5073 39.8351L16.0215 39.928C16.0861 42.2839 17.0803 43.8531 19.651 43.8531C20.3446 43.8531 21.1502 43.7099 21.7423 43.5144V44.3364C20.6377 44.8459 19.6811 45.0415 18.4472 45.0415C15.4285 45.0415 13.1028 43.0835 13.1028 40.0097C13.1028 36.9494 15.3639 35.0783 18.3149 35.0783C20.6971 35.0783 22.5457 36.6939 22.5457 39.0948C22.5457 39.339 22.5276 39.5953 22.5073 39.8351Z" fill="#949494"/>
<path fill-rule="evenodd" clip-rule="evenodd" d="M26.8264 52.8372C25.3159 52.8372 24.7238 54.5944 24.6704 55.8601L27.2465 55.6031C27.9168 55.5364 28.3353 55.4442 28.3353 54.6574C28.3353 53.7597 27.8055 52.8372 26.8264 52.8372ZM31.1075 56.6416L24.6223 56.7398C24.6907 59.1115 25.6872 60.6671 28.2579 60.6671C28.944 60.6671 29.7421 60.5202 30.3395 60.3284V61.1616C29.2273 61.654 28.2902 61.8638 27.0466 61.8638C24.0279 61.8638 21.7036 59.8968 21.7036 56.817C21.7036 53.7777 23.9588 51.9043 26.9203 51.9043C29.2927 51.9043 31.1443 53.5191 31.1443 55.9253C31.1443 56.1486 31.1248 56.4063 31.1075 56.6416Z" fill="#949494"/>
<path fill-rule="evenodd" clip-rule="evenodd" d="M58.5928 11.2644C58.287 10.7009 54.5409 3.84969 54.5409 3.84969C54.5409 3.84969 59.2368 3.29668 66.0113 6.93622C71.2633 9.74998 74.2962 14.1021 74.2962 14.1021C74.2962 14.1021 68.9059 13.7904 64.8104 18.6289C63.9823 19.6098 63.8065 20.0736 63.8065 20.0736C63.8065 20.0736 59.2932 12.5473 58.5928 11.2644ZM52.5526 23.9567C51.6313 24.7682 51.3382 25.313 51.3382 25.313C51.3382 25.313 47.6613 15.5087 53.2364 5.39408C53.6196 4.69944 54.0803 4.14193 54.0803 4.14193C54.0803 4.14193 57.549 11.388 58.2817 12.814C59.0182 14.246 62.402 20.823 62.402 20.823C62.402 20.823 56.7773 20.228 52.5526 23.9567ZM46.7099 25.1219C42.7587 25.1107 40.5224 27.1002 40.5224 27.1002C40.5224 27.1002 39.5687 21.1429 43.8341 13.8668C47.8303 7.05311 53.5167 4.09772 53.5167 4.09772C53.5167 4.09772 52.805 4.98269 52.1941 6.03401C46.4792 15.9717 49.821 25.6007 49.821 25.6007C49.821 25.6007 49.0199 25.1264 46.7099 25.1219ZM67.1332 0.662007C74.8793 0.733944 81.6237 5.55444 81.6237 5.55444C81.6237 5.55444 79.5737 6.15766 77.5185 8.20485C75.4369 10.2783 75.0619 12.4866 75.0619 12.4866C75.0619 12.4866 69.4891 5.61963 59.1917 3.71107C56.5534 3.224 54.9798 3.39559 54.9798 3.39559C54.9798 3.39559 59.8876 0.591569 67.1332 0.662007ZM78.1354 36.0802C78.1354 36.0802 77.8634 35.9341 77.3329 36.2391C76.8632 36.5261 76.912 36.8288 76.912 36.8288C76.912 36.8288 76.9353 36.8715 76.9353 36.8775C77.0699 37.0948 77.6199 38.0577 77.8581 38.613C78.1084 39.178 78.1662 39.9199 77.29 40.5246C76.8211 40.843 75.9396 41.0618 75.2318 40.7067C75.0687 40.6302 74.823 40.4436 74.6163 40.1559C74.315 39.7385 70.6561 32.9637 70.6561 32.9637L64.5767 21.7499C64.5767 21.7499 64.4317 21.4741 64.4505 21.3437C64.4806 21.1279 64.5384 21.0403 64.6143 20.9241C68.564 14.5772 75.9186 15.2411 75.9186 15.2411C75.9186 15.2411 75.8818 14.4199 76.0959 13.3056C77.3163 7.14978 84.7663 5.80472 84.7663 5.80472C84.7663 5.80472 81.8507 3.46004 77.3607 1.85495C74.0933 0.682239 71.4331 0.0580404 67.3331 0.0550431C62.517 0.0520457 58.2877 1.50052 57.7963 1.65113C56.4579 2.06926 54.4628 3.09136 54.4628 3.09136L52.6382 0.279095C52.6382 0.279095 52.5698 0.236383 52.4346 0.306821C52.3151 0.371264 52.3121 0.460435 52.3121 0.460435L53.5069 3.56195C53.5069 3.56195 53.0741 3.77476 52.5398 4.09772C51.5516 4.69944 49.96 5.6511 47.4501 8.04974C45.9344 9.49896 43.7792 12.1441 42.1087 15.1819C38.2214 22.2752 39.1321 29.4726 39.1321 29.4726C39.1321 29.4726 42.1921 26.2602 46.7543 26.3021C49.6226 26.3328 51.2886 27.2111 51.2886 27.2111C51.2886 27.2111 51.9536 26.0309 53.2334 24.8949C55.5734 22.8125 59.176 21.9372 61.8324 21.959C62.4245 21.962 62.7349 21.9822 62.9348 22.0451C63.1009 22.0998 63.2046 22.2467 63.2046 22.2467L73.2096 40.5785C73.2096 40.5785 73.9798 42.3844 76.2162 42.2878C78.3932 42.1978 79.4896 40.7104 79.4896 39.2402C79.4979 38.0195 78.3812 36.4601 78.1662 36.1155L78.1354 36.0802Z" fill="#949494"/>
<path fill-rule="evenodd" clip-rule="evenodd" d="M58.5928 11.2644C58.287 10.7009 54.5409 3.84969 54.5409 3.84969C54.5409 3.84969 59.2368 3.29668 66.0113 6.93622C71.2633 9.74998 74.2962 14.1021 74.2962 14.1021C74.2962 14.1021 68.9059 13.7904 64.8104 18.6289C63.9823 19.6098 63.8065 20.0736 63.8065 20.0736C63.8065 20.0736 59.2932 12.5473 58.5928 11.2644ZM52.5526 23.9567C51.6313 24.7682 51.3382 25.313 51.3382 25.313C51.3382 25.313 47.6613 15.5087 53.2364 5.39408C53.6196 4.69944 54.0803 4.14193 54.0803 4.14193C54.0803 4.14193 57.549 11.388 58.2817 12.814C59.0182 14.246 62.402 20.823 62.402 20.823C62.402 20.823 56.7773 20.228 52.5526 23.9567ZM46.7099 25.1219C42.7587 25.1107 40.5224 27.1002 40.5224 27.1002C40.5224 27.1002 39.5687 21.1429 43.8341 13.8668C47.8303 7.05311 53.5167 4.09772 53.5167 4.09772C53.5167 4.09772 52.805 4.98269 52.1941 6.03401C49.8541 10.1031 49.0325 14.1205 48.8782 17.4463C48.6556 22.2428 49.821 25.6007 49.821 25.6007C49.821 25.6007 49.0199 25.1264 46.7099 25.1219ZM67.1332 0.662007C74.8793 0.733944 81.6237 5.55444 81.6237 5.55444C81.6237 5.55444 79.5737 6.15766 77.5185 8.20485C75.4369 10.2783 75.0619 12.4866 75.0619 12.4866C75.0619 12.4866 69.4891 5.61963 59.1917 3.71107C56.5534 3.224 54.9798 3.39559 54.9798 3.39559C54.9798 3.39559 59.8876 0.591569 67.1332 0.662007ZM78.1354 36.0802C78.1354 36.0802 77.8634 35.9341 77.3329 36.2391C76.8632 36.5261 76.912 36.8288 76.912 36.8288C76.912 36.8288 76.9353 36.8715 76.9353 36.8775C77.0699 37.0948 77.6199 38.0577 77.8581 38.613C78.1084 39.178 78.1662 39.9199 77.29 40.5246C76.8211 40.843 75.9396 41.0618 75.2318 40.7067C75.0687 40.6302 74.823 40.4436 74.6163 40.1559C74.315 39.7385 70.6561 32.9637 70.6561 32.9637L64.5767 21.7499C64.5767 21.7499 64.4317 21.4741 64.4505 21.3437C64.4806 21.1279 64.5384 21.0403 64.6143 20.9241C68.564 14.5772 75.9186 15.2411 75.9186 15.2411C75.9186 15.2411 75.8818 14.4199 76.0959 13.3056C77.3163 7.14978 84.7663 5.80472 84.7663 5.80472C84.7663 5.80472 81.8507 3.46004 77.3607 1.85495C74.0933 0.682239 71.4331 0.0580404 67.3331 0.0550431C62.517 0.0520457 58.2877 1.50052 57.7963 1.65113C56.4579 2.06926 54.4628 3.09136 54.4628 3.09136L52.6382 0.279095C52.6382 0.279095 52.5698 0.236383 52.4346 0.306821C52.3151 0.371264 52.3121 0.460435 52.3121 0.460435L53.5069 3.56195C53.5069 3.56195 53.0741 3.77476 52.5398 4.09772C51.5516 4.69944 49.96 5.6511 47.4501 8.04974C45.9344 9.49896 43.7792 12.1441 42.1087 15.1819C38.2214 22.2752 39.1321 29.4726 39.1321 29.4726C39.1321 29.4726 42.1921 26.2602 46.7543 26.3021C49.6226 26.3328 51.2886 27.2111 51.2886 27.2111C51.2886 27.2111 51.9536 26.0309 53.2334 24.8949C55.5734 22.8125 59.176 21.9372 61.8324 21.959C62.4245 21.962 62.7349 21.9822 62.9348 22.0451C63.1009 22.0998 63.2046 22.2467 63.2046 22.2467L73.2096 40.5785C73.2096 40.5785 73.9798 42.3844 76.2162 42.2878C78.3932 42.1978 79.4896 40.7104 79.4896 39.2402C79.4979 38.0195 78.3812 36.4601 78.1662 36.1155L78.1354 36.0802Z" fill="#949494"/>
</svg>
